<svg width="18" height="37" viewBox="0 0 18 37" fill="none" xmlns="http://www.w3.org/2000/svg">
<path d="M2.067 34H3.211V29.996C3.211 29.27 3.112 28.225 3.057 27.488H3.101L3.739 29.358L5.158 33.219H5.95L7.358 29.358L8.007 27.488H8.051C7.985 28.225 7.886 29.27 7.886 29.996V34H9.074V25.893H7.6L6.137 29.996C5.95 30.535 5.796 31.085 5.609 31.624H5.554C5.367 31.085 5.202 30.535 5.015 29.996L3.53 25.893H2.067V34ZM12.5289 34H13.8049V30.931L16.2469 25.893H14.9159L13.9699 28.049C13.7279 28.654 13.4639 29.215 13.1999 29.831H13.1559C12.8809 29.215 12.6499 28.654 12.3969 28.049L11.4619 25.893H10.0979L12.5289 30.931V34Z" fill="#111111" fill-opacity="0.3"/>
<path d="M0.0239679 17.9999C0.0239679 17.0954 -0.0299599 16.2723 0.0239679 15.4402C0.0818494 15.0528 0.218726 14.6817 0.425993 14.3502C0.633261 14.0186 0.906439 13.7338 1.22836 13.5136C2.21636 12.7285 3.35923 12.1643 4.58087 11.8584C6.67036 11.2887 8.85029 11.1351 10.9983 11.4062C13.001 11.5617 14.9241 12.262 16.5619 13.4322C17.0054 13.7148 17.3702 14.1063 17.6218 14.57C17.8734 15.0336 18.0035 15.5541 17.9999 16.0824C17.9999 16.7065 17.9999 17.3396 17.9999 17.9999H0.0239679Z" fill="#111111" fill-opacity="0.3"/>
<path d="M4.51797 4.43273C4.51915 3.848 4.63505 3.26926 4.85905 2.72972C5.08304 2.19018 5.4107 1.70047 5.82324 1.28868C6.23578 0.876898 6.72506 0.551151 7.26301 0.330135C7.80096 0.109119 8.37699 -0.00281371 8.95803 0.000760183C9.55121 -0.0102856 10.1405 0.0991436 10.6907 0.322506C11.2409 0.545868 11.7407 0.878578 12.1602 1.30074C12.5797 1.72291 12.9103 2.22587 13.1323 2.77954C13.3543 3.33322 13.463 3.92625 13.452 4.52318C13.5145 5.15552 13.4438 5.794 13.2446 6.39701C13.0455 7.00002 12.7222 7.55403 12.2961 8.02291C11.8699 8.49179 11.3502 8.86502 10.7711 9.11827C10.192 9.37152 9.56629 9.49911 8.93486 9.49272C8.30344 9.48632 7.68044 9.34609 7.10648 9.08117C6.53252 8.81624 6.02048 8.43257 5.60375 7.95515C5.18701 7.47774 4.87493 6.91731 4.68785 6.31038C4.50076 5.70346 4.44288 5.06368 4.51797 4.43273Z" fill="#111111" fill-opacity="0.3"/>
</svg>
