<svg width="96" height="115" viewBox="0 0 96 115" fill="none" xmlns="http://www.w3.org/2000/svg">
<path d="M91.9543 104.267C90.2878 96.1383 87.7345 88.2175 84.34 80.6463C84.1894 80.3753 84.149 80.0567 84.2271 79.7566C84.3052 79.4566 84.4958 79.1981 84.7594 79.0349C84.8074 79.0081 84.8579 78.9861 84.9102 78.9689C84.7214 78.7813 84.5984 78.5378 84.5593 78.2746C84.5203 78.0114 84.5673 77.7426 84.6934 77.5083C85.1033 76.6554 85.4944 75.7885 85.8478 74.9026C88.8306 67.3497 89.7636 59.1425 88.5524 51.1128C87.3509 43.1546 84.1374 35.267 78.8414 29.1417C76.0172 25.7747 72.2825 23.2931 68.0844 21.9939C63.9661 20.8081 59.6667 20.3802 55.3955 20.7311C47.1978 21.3188 39.3829 24.4296 33.0239 29.6364C29.8293 32.2798 26.7478 35.512 25.3625 39.5029C24.6482 41.7209 24.2531 44.0293 24.1893 46.3586C24.0668 48.6862 24.0621 51.0186 24.1893 53.3415C37.3022 52.3991 50.4905 52.7431 63.6176 53.0446C65.1348 53.0776 65.1348 55.4335 63.6176 55.4005C55.697 55.2168 47.7718 55.0377 39.8513 55.1225C36.3551 55.1602 32.8637 55.245 29.377 55.41C25.8902 55.5749 22.4648 55.7162 19.044 56.1356C18.4435 56.1551 17.8592 56.3357 17.3525 56.6586C17.1914 56.8331 17.0668 57.038 16.9859 57.2613C16.905 57.4846 16.8694 57.7218 16.8813 57.959C16.7824 59.5923 16.7729 61.2297 16.853 62.864C16.9181 66.2235 17.3623 69.5649 18.177 72.8247C19.5906 78.2904 22.4506 83.5017 26.9551 87.0308C31.6669 90.7343 37.7216 92.2844 43.5218 93.3399C43.8069 93.4362 44.0448 93.6372 44.1873 93.9023C44.3299 94.1673 44.3665 94.4766 44.2898 94.7676C44.1991 95.056 44.0037 95.3001 43.7422 95.4519C43.4806 95.6036 43.1717 95.6519 42.8763 95.5874C35.9169 94.3199 28.7409 92.2232 23.5579 87.1627C19.0817 82.8137 16.4431 76.8863 15.3076 70.8128C14.6752 67.2601 14.3896 63.6543 14.4547 60.0464C14.4547 58.5386 14.3228 56.7481 15.2604 55.4712C15.4717 55.1772 15.7276 54.918 16.019 54.7032C15.7737 54.4735 15.6268 54.1577 15.6091 53.8221C15.5196 51.4285 15.529 49.0349 16.5232 46.8062C16.5795 46.6757 16.6688 46.562 16.7823 46.4764C16.7029 46.3529 16.6511 46.2137 16.6303 46.0683C16.6095 45.923 16.6202 45.7748 16.6618 45.634C16.7034 45.4932 16.7748 45.363 16.8712 45.2522C16.9676 45.1414 17.0868 45.0528 17.2205 44.9922C18.3608 44.422 18.5681 42.9849 18.1629 41.8258C17.6493 40.238 16.1038 39.1071 14.8269 38.1648C14.2144 37.6936 13.9176 36.5251 14.8269 36.1293L16.8247 35.2529L17.7671 34.843C17.8236 34.8147 18.1676 34.6309 18.3372 34.5555C18.0626 34.0266 17.6691 33.5686 17.1876 33.2174C14.4783 31.1254 10.7465 32.2279 8.95134 34.8665C6.59544 38.2873 7.38231 42.608 9.39425 45.9864C9.54682 46.2574 9.58788 46.5772 9.50872 46.878C9.42957 47.1788 9.23641 47.437 8.97019 47.5978C6.96768 48.6297 5.77088 50.5945 5.08296 52.6865C4.28319 55.3837 3.95483 58.1987 4.11233 61.0076C4.3461 69.2328 6.67146 77.2629 10.869 84.3404C14.6385 90.7154 20.1089 97.0622 27.3603 99.4841C27.4327 99.5077 27.5022 99.5393 27.5676 99.5783L27.61 99.0694C27.6161 98.7589 27.7421 98.4628 27.9617 98.2432C28.1813 98.0236 28.4775 97.8975 28.788 97.8915C29.0996 97.8939 29.3978 98.0188 29.6182 98.2392C29.8386 98.4596 29.9635 98.7578 29.9659 99.0694C29.6267 103.202 29.3157 107.367 29.2262 111.518C29.3438 111.482 29.466 111.463 29.589 111.461H93.0993C93.0513 111.339 93.0196 111.211 93.005 111.08C92.76 108.776 92.4019 106.514 91.9543 104.267ZM36.8357 48.5307C36.8357 50.0479 34.4798 50.0479 34.4798 48.5307V31.7002C34.4798 30.183 36.8357 30.183 36.8357 31.7002V48.5307ZM48.9121 47.6826C48.8263 47.9814 48.6267 48.2347 48.3563 48.388C48.0858 48.5413 47.766 48.5824 47.4655 48.5025C47.098 48.3988 46.7305 48.314 46.3583 48.2433L46.0709 48.1962H46.0237C45.8524 48.1657 45.6793 48.1468 45.5054 48.1396C44.7647 48.0831 44.0205 48.0926 43.2815 48.1679C42.9702 48.1643 42.6727 48.039 42.4526 47.8189C42.2325 47.5987 42.1072 47.3012 42.1035 46.99C42.1065 46.6781 42.2297 46.3793 42.4475 46.156C42.6744 45.9437 42.9709 45.8214 43.2815 45.812C44.8962 45.652 46.5266 45.7974 48.0875 46.2408C48.3801 46.3287 48.6282 46.5248 48.7814 46.7891C48.9346 47.0534 48.9813 47.3662 48.9121 47.6638V47.6826ZM55.4426 48.5307C55.4426 50.0479 53.0867 50.0479 53.0867 48.5307V31.7002C53.0867 30.183 55.4426 30.183 55.4426 31.7002V48.5307Z" fill="#F9E0D7"/>
<path d="M28.1048 52.7053C28.0098 51.3913 27.9878 50.0732 28.0389 48.7568C28.0624 48.2856 28.0954 47.8144 28.1378 47.3432C28.1614 47.1124 28.1849 46.8721 28.2132 46.6506C28.2132 46.5375 28.2415 46.4292 28.2509 46.3161C28.2933 45.9486 28.1519 47.004 28.2085 46.6365C28.2085 46.5611 28.232 46.4857 28.2415 46.4056C28.4059 45.2774 28.6387 44.1602 28.9388 43.0602C29.1037 42.4618 29.2875 41.8681 29.4948 41.2839C29.5937 41.0012 29.6974 40.7185 29.8058 40.4405C29.8623 40.2897 29.9236 40.1436 29.9801 39.9693C30.0367 39.795 30.2346 39.4604 29.8953 40.1766C29.9377 40.0871 29.9707 39.9976 30.0131 39.908C30.5836 38.6175 31.2614 37.3771 32.0392 36.1999C32.2371 35.8936 32.4444 35.5967 32.6564 35.2999L32.9815 34.8664C33.3161 34.3952 32.6658 35.2528 33.0286 34.8099C33.5422 34.1691 34.0794 33.5471 34.6495 32.9534C35.2196 32.3597 35.8227 31.7896 36.4447 31.243C36.7698 30.9603 37.1044 30.6823 37.4436 30.4138C37.5661 30.3148 37.9619 30.051 37.3871 30.4562L37.5991 30.2913L38.254 29.8201C40.1177 28.4865 42.1059 27.3362 44.1909 26.3852L44.9354 26.0554C45.4584 25.8198 44.4642 26.2533 44.9825 26.0318L45.4536 25.8433C46.0662 25.5983 46.6881 25.3722 47.3384 25.146C48.7095 24.6748 50.1042 24.246 51.5083 23.8785C52.1106 23.7123 52.6223 23.3136 52.9307 22.7702C53.239 22.2268 53.3189 21.5831 53.1527 20.9808C52.9865 20.3784 52.5878 19.8668 52.0444 19.5584C51.501 19.25 50.8573 19.1701 50.255 19.3363C41.8727 21.5462 33.9239 25.6549 28.7126 32.7414C25.4709 37.1611 23.7653 42.5231 23.3742 47.9558C23.2635 49.537 23.2635 51.124 23.3742 52.7053C23.459 53.9303 24.3966 55.1177 25.7301 55.0612C26.9363 55.0046 28.1755 54.0199 28.086 52.7053H28.1048Z" fill="white"/>
<path d="M18.0121 55.2166C17.0038 56.4181 16.5985 58.0436 16.297 59.5656C15.8179 62.0195 15.6783 64.5277 15.8824 67.0196C16.5201 74.4149 19.9625 81.2862 25.5038 86.2249C30.0884 90.3383 35.6483 93.123 41.4438 95.1019C41.7421 95.1842 42.0536 95.207 42.3607 95.1689C42.6677 95.1308 42.9642 95.0326 43.2333 94.8799C43.5024 94.7272 43.7388 94.523 43.9289 94.2789C44.1191 94.0349 44.2593 93.7557 44.3416 93.4575C44.4952 92.8556 44.4097 92.2176 44.1031 91.6773C43.7965 91.1371 43.2927 90.7365 42.6972 90.5597C41.981 90.3147 41.2836 90.0603 40.5627 89.787L39.7099 89.4525L39.2057 89.2451C38.9607 89.1462 38.9843 89.1556 39.2764 89.2781L38.9513 89.1368C37.7639 88.6185 36.5954 88.0578 35.4551 87.4405C34.3149 86.8233 33.2924 86.2155 32.2558 85.5275C31.8082 85.2307 31.37 84.9244 30.9365 84.5852C30.7858 84.4768 30.046 83.8643 30.6208 84.3543C30.4088 84.1753 30.1826 84.0103 29.9659 83.836C28.4048 82.5687 26.9747 81.1481 25.697 79.5954C25.5651 79.4399 25.0845 78.7426 25.5462 79.4211C25.4379 79.2609 25.3107 79.1101 25.1976 78.9499C24.9149 78.5682 24.6416 78.1724 24.3777 77.7719C23.9065 77.051 23.4731 76.3113 23.0773 75.548C22.8982 75.204 22.7286 74.8553 22.5637 74.5019L22.3092 73.9365C22.1349 73.5502 22.5448 74.5114 22.3893 74.1203L22.2715 73.8376C21.9794 73.1025 21.7156 72.3534 21.4941 71.5948C21.2726 70.8362 21.1124 70.1812 20.9664 69.4933C20.891 69.1399 20.825 68.7865 20.7685 68.4284L20.6978 67.9902C20.6978 67.9007 20.6978 67.8159 20.6601 67.7264C20.8015 68.6169 20.7167 68.1269 20.6884 67.9243C20.537 66.6628 20.4771 65.392 20.5093 64.1219C20.5093 63.5706 20.5517 63.0193 20.6036 62.468C20.6036 62.223 20.6507 61.9968 20.679 61.733C20.679 61.667 20.679 61.6058 20.679 61.5398C20.7214 61.2005 20.58 62.2513 20.6318 61.912L20.6884 61.5162C20.8283 60.6279 21.0378 59.752 21.3151 58.8965C21.3669 58.741 21.4187 58.5808 21.4753 58.4253C21.5035 58.3499 21.5365 58.2792 21.5648 58.2038C21.6402 57.9871 21.2208 58.9483 21.4093 58.5714C21.5978 58.1944 21.97 57.7845 21.3433 58.529C22.1396 57.5866 22.3375 56.1071 21.3433 55.193C20.4716 54.392 18.8602 54.1894 18.0121 55.193V55.2166Z" fill="white"/>
<path d="M16.6599 31.757C14.4265 31.1633 11.9811 31.8559 10.1246 33.1705C8.16925 34.5464 6.66147 36.6337 6.74157 39.1262C6.74157 39.7511 6.98978 40.3503 7.4316 40.7921C7.87342 41.2339 8.47265 41.4821 9.09747 41.4821C9.72229 41.4821 10.3215 41.2339 10.7633 40.7921C11.2052 40.3503 11.4534 39.7511 11.4534 39.1262C11.4455 38.898 11.4566 38.6695 11.4864 38.443L11.4015 39.0697C11.4581 38.7308 11.5513 38.399 11.6795 38.0802L11.4439 38.6362C11.5993 38.2851 11.792 37.9518 12.0188 37.642L11.6513 38.1132C11.9642 37.7225 12.3233 37.3713 12.7208 37.0672L12.2497 37.4394C12.8076 37.009 13.4189 36.6526 14.0684 36.3793L13.503 36.6196C13.9915 36.4177 14.5024 36.2754 15.0249 36.1955L14.3747 36.2803C14.7643 36.2324 15.1583 36.2324 15.5479 36.2803L14.9212 36.1955C15.0801 36.2192 15.2374 36.2523 15.3924 36.2944C15.6907 36.3767 16.0022 36.3995 16.3092 36.3614C16.6163 36.3233 16.9128 36.2251 17.1819 36.0724C17.451 35.9197 17.6873 35.7155 17.8775 35.4714C18.0677 35.2274 18.2079 34.9483 18.2902 34.65C18.3725 34.3518 18.3952 34.0402 18.3571 33.7332C18.319 33.4262 18.2208 33.1297 18.0681 32.8606C17.9154 32.5915 17.7112 32.3551 17.4672 32.165C17.2231 31.9748 16.944 31.8346 16.6458 31.7523L16.6599 31.757Z" fill="white"/>
<path d="M8.00896 46.646C5.52476 49.363 4.00895 52.8254 3.69767 56.4937C3.49943 58.8623 3.5231 61.2443 3.76835 63.6085C4.50865 71.9379 7.45035 79.9207 12.292 86.7387C16.1292 91.9888 20.9254 96.4653 26.4274 99.9317C26.6946 100.088 26.9901 100.19 27.2967 100.231C27.6033 100.273 27.9152 100.254 28.2145 100.175C28.5138 100.097 28.7946 99.9596 29.041 99.7723C29.2873 99.585 29.4944 99.3509 29.6502 99.0836C29.9522 98.5412 30.033 97.9032 29.8759 97.3027C29.7187 96.7022 29.3357 96.1856 28.8068 95.8607C27.5393 95.055 26.3096 94.1927 25.1081 93.2881C24.6369 92.9206 25.4897 93.5943 25.0091 93.2174L24.6604 92.9347C24.406 92.7321 24.1516 92.5295 23.9018 92.3174C23.3584 91.8557 22.8276 91.3955 22.3093 90.9369C20.4147 89.2248 18.6668 87.3572 17.0839 85.3534L16.9896 85.2309C16.8326 85.033 16.8609 85.0707 17.0745 85.344C16.9689 85.2318 16.8757 85.1086 16.7965 84.9765L16.3253 84.3639C15.9483 83.8409 15.5808 83.3085 15.2274 82.7713C14.6212 81.8478 14.0495 80.9055 13.5123 79.9443C12.994 79.0019 12.504 78.0596 12.0517 77.0607L11.7784 76.3727L11.6229 76.0052C11.425 75.5576 11.8396 76.5376 11.6559 76.0853C11.4721 75.633 11.2648 75.143 11.081 74.6388C10.4139 72.8584 9.85995 71.0376 9.4225 69.1872C9.2246 68.358 9.05027 67.524 8.89949 66.6853C8.8241 66.2659 8.75814 65.8513 8.69217 65.4319L8.62149 64.9231C8.55553 64.5037 8.70159 65.5733 8.64976 65.1492C8.64976 65.0173 8.61678 64.8854 8.60265 64.7534C8.28794 62.2756 8.20119 59.7742 8.3435 57.2805C8.37177 56.8094 8.40946 56.3759 8.466 55.9235L8.49428 55.6738C8.49428 55.523 8.37177 56.4984 8.45187 55.9989C8.45187 55.8623 8.49428 55.7256 8.51783 55.5937C8.64859 55.006 8.82504 54.4294 9.04556 53.8692C9.11623 53.6807 9.19162 53.497 9.2623 53.3085C9.33297 53.12 9.36125 53.0635 9.2623 53.3085C9.31413 53.186 9.37067 53.0682 9.42721 52.9457C9.59212 52.5876 9.77588 52.2342 9.96907 51.8855C10.1623 51.5369 10.4402 51.1034 10.7088 50.7123C11.0622 50.1752 10.4026 51.0516 10.8219 50.5615C10.9962 50.3589 11.1659 50.1563 11.3449 49.9631C11.7449 49.5132 11.9575 48.9272 11.9389 48.3254C11.9204 47.7236 11.6722 47.1518 11.2453 46.7273C10.8184 46.3028 10.2452 46.0579 9.6433 46.0427C9.04145 46.0276 8.45664 46.2435 8.00896 46.646Z" fill="white"/>
<path d="M18.4125 34.5086H18.436C18.436 34.5086 18.4125 34.4992 18.4125 34.5086Z" fill="white"/>
<path d="M24.1892 46.3351C24.253 44.0058 24.6481 41.6974 25.3624 39.4795C26.7477 35.4886 29.8292 32.2563 33.0238 29.613C39.3857 24.4146 47.2003 21.3122 55.3954 20.7312C59.668 20.3879 63.9675 20.8238 68.0843 22.0176C72.2756 23.32 76.0034 25.8014 78.8224 29.1653C84.1185 35.2907 87.3319 43.1782 88.5334 51.1364C89.743 59.1631 88.81 67.3668 85.8289 74.9169C85.4755 75.8027 85.0844 76.6696 84.6745 77.5225C84.5484 77.7568 84.5013 78.0256 84.5404 78.2888C84.5795 78.552 84.7025 78.7956 84.8912 78.9831C85.1012 78.9037 85.3286 78.882 85.5498 78.9201C85.771 78.9582 85.978 79.0548 86.1493 79.1999C86.3867 79.1172 86.5848 78.9493 86.7053 78.7287C90.4266 70.9617 91.9797 62.3333 91.2003 53.7562C90.4653 45.2326 87.5157 36.8079 82.4034 29.8863C79.6517 26.1592 76.2781 22.8704 71.9856 20.9338C67.6932 18.9973 63.0332 18.2575 58.411 18.234C49.6429 18.215 41.0857 20.922 33.9238 25.9802C30.3004 28.5575 26.8561 31.7191 24.5944 35.5969C22.0642 39.9554 21.7673 45.0205 21.7673 49.9679C21.7673 51.1459 21.8003 52.3238 21.8569 53.5018C22.639 53.4358 23.4243 53.3745 24.2128 53.318C24.062 50.9951 24.0667 48.6627 24.1892 46.3351Z" fill="#2D2824"/>
<path d="M16.7916 55.0002C16.6494 55.0059 16.5075 54.9825 16.3746 54.9314C16.2418 54.8804 16.1207 54.8028 16.0189 54.7033C15.7174 54.9158 15.4518 55.1751 15.232 55.4713C14.2897 56.7529 14.4404 58.5387 14.4263 60.0465C14.3612 63.6545 14.6468 67.2602 15.2791 70.8129C16.4147 76.8864 19.0486 82.8139 23.5295 87.1629C28.7125 92.2233 35.8932 94.3201 42.8479 95.5875C43.1474 95.66 43.4633 95.6156 43.7312 95.4632C43.999 95.3109 44.1988 95.0622 44.2897 94.7677C44.3708 94.466 44.3298 94.1444 44.1754 93.8727C44.021 93.6011 43.7658 93.4012 43.4651 93.3165C37.6649 92.261 31.6244 90.7108 26.8984 87.0074C22.394 83.4782 19.5433 78.267 18.1204 72.8013C17.3056 69.5415 16.8614 66.2001 16.7963 62.8406C16.7232 61.2122 16.7389 59.5811 16.8435 57.9544C16.8316 57.7172 16.8671 57.48 16.948 57.2567C17.0289 57.0335 17.1536 56.8285 17.3146 56.654C17.8214 56.3311 18.4056 56.1505 19.0062 56.131C22.4269 55.7116 25.8995 55.5656 29.3391 55.4054C32.7787 55.2452 36.3173 55.1556 39.8135 55.118C47.734 55.0331 55.6592 55.2122 63.5797 55.3959C65.0969 55.4289 65.0969 53.073 63.5797 53.04C50.4527 52.7385 37.2644 52.3992 24.1515 53.3369C24.1515 53.5301 24.1515 53.7233 24.1797 53.9164C24.2645 55.4336 21.9086 55.4242 21.8238 53.9164C21.8238 53.7845 21.8238 53.6526 21.8238 53.5206C21.0087 53.5866 20.1888 53.662 19.3737 53.7374C18.8994 53.781 18.4276 53.8486 17.9602 53.94C17.9242 54.2272 17.7866 54.492 17.5723 54.6865C17.3579 54.881 17.081 54.9923 16.7916 55.0002Z" fill="#2D2824"/>
<path d="M24.1986 53.8974C24.1986 53.7042 24.1986 53.5111 24.1704 53.3179C23.3882 53.3744 22.6029 53.4357 21.8145 53.5016C21.8145 53.6336 21.8145 53.7655 21.8145 53.8974C21.9275 55.4052 24.2834 55.4146 24.1986 53.8974Z" fill="#2D2824"/>
<path d="M53.0865 31.7004V48.5309C53.0865 50.0481 55.4424 50.0481 55.4424 48.5309V31.7004C55.4424 30.1832 53.0865 30.1832 53.0865 31.7004Z" fill="#2D2824"/>
<path d="M34.4797 31.7004V48.5309C34.4797 50.0481 36.8356 50.0481 36.8356 48.5309V31.7004C36.8356 30.1832 34.4797 30.1832 34.4797 31.7004Z" fill="#2D2824"/>
<path d="M46.0237 48.168C45.7881 48.1068 45.9295 48.1445 46.0237 48.168V48.168Z" fill="#2D2824"/>
<path d="M48.0875 46.2125C46.5266 45.7691 44.8962 45.6237 43.2815 45.7837C42.9709 45.7931 42.6744 45.9154 42.4475 46.1277C42.2297 46.351 42.1065 46.6497 42.1035 46.9617C42.1072 47.2729 42.2325 47.5704 42.4526 47.7905C42.6727 48.0107 42.9702 48.1359 43.2815 48.1396C44.0205 48.0643 44.7647 48.0548 45.5054 48.1113C45.6793 48.1185 45.8524 48.1374 46.0237 48.1679C45.9295 48.1679 45.7881 48.1066 46.0237 48.1679H46.0708L46.3583 48.215C46.7305 48.2857 47.098 48.3705 47.4655 48.4742C47.766 48.5541 48.0858 48.513 48.3563 48.3597C48.6267 48.2064 48.8263 47.9531 48.9121 47.6543C48.9867 47.354 48.9426 47.0366 48.789 46.768C48.6354 46.4994 48.3841 46.3004 48.0875 46.2125Z" fill="#2D2824"/>
<path d="M85.0938 79.12C85.0206 79.0779 84.9526 79.0273 84.8912 78.9692C84.8389 78.9864 84.7884 79.0085 84.7404 79.0352C84.4768 79.1984 84.2862 79.4569 84.2081 79.757C84.13 80.057 84.1704 80.3756 84.321 80.6466C87.7219 88.2171 90.2816 96.1379 91.9542 104.267C92.4253 106.514 92.7599 108.776 93.0049 111.057C93.0195 111.187 93.0512 111.316 93.0991 111.438H94.3996C94.6812 111.429 94.9554 111.53 95.1629 111.721C95.3109 111.533 95.3816 111.295 95.3608 111.057C94.442 102.538 92.1662 94.2025 89.1271 86.2066C88.2664 83.9292 87.3413 81.6801 86.3518 79.4593C86.3052 79.3544 86.236 79.2611 86.1492 79.186C85.9789 79.2516 85.7964 79.2797 85.6143 79.2683C85.4321 79.2569 85.2546 79.2064 85.0938 79.12Z" fill="#2D2824"/>
<path d="M84.8911 78.969C84.9525 79.027 85.0205 79.0776 85.0937 79.1198C85.2545 79.2061 85.4321 79.2567 85.6142 79.2681C85.7964 79.2795 85.9789 79.2514 86.1492 79.1858C85.9779 79.0407 85.7709 78.9441 85.5497 78.906C85.3285 78.8678 85.1011 78.8896 84.8911 78.969Z" fill="#2D2824"/>
<path d="M18.4126 34.5083L18.3419 34.5366C18.5304 34.8664 18.3985 34.5648 18.4126 34.5083Z" fill="#2D2824"/>
<path d="M27.3272 99.4605C20.0898 97.0292 14.6383 90.6918 10.8359 84.3168C6.64938 77.2491 4.32914 69.2328 4.0933 61.0217C3.9358 58.2128 4.26416 55.3978 5.06393 52.7006C5.75185 50.6086 6.94864 48.6438 8.95116 47.6119C9.21738 47.4511 9.41053 47.1929 9.48969 46.8921C9.56885 46.5913 9.52779 46.2715 9.37522 46.0005C7.36328 42.6221 6.59526 38.3014 8.95116 34.8665C10.7652 32.2137 14.4969 31.0971 17.1968 33.1655C17.6783 33.5167 18.0719 33.9747 18.3465 34.5037L18.4172 34.4754C18.4172 34.4754 18.4172 34.4754 18.4407 34.4754H18.4172C18.4172 34.5319 18.5349 34.8382 18.3465 34.5037C18.1768 34.5791 17.8329 34.7628 17.7763 34.7911L16.834 35.201L14.8362 36.0774C13.9268 36.4732 14.2237 37.6464 14.8362 38.1129C16.1131 39.0788 17.6633 40.2049 18.191 41.7928C18.5821 42.9519 18.3747 44.389 17.2486 44.9591C17.1149 45.0197 16.9957 45.1084 16.8993 45.2192C16.8029 45.3299 16.7315 45.4602 16.6899 45.601C16.6483 45.7418 16.6376 45.89 16.6584 46.0353C16.6792 46.1807 16.731 46.3198 16.8104 46.4434C17.0056 46.3053 17.2349 46.2235 17.4734 46.2069C17.7118 46.1903 17.9503 46.2395 18.1627 46.3491C18.3792 46.4635 18.5467 46.6528 18.6339 46.8816C20.4715 45.8214 21.0558 43.4325 20.561 41.4583C20.1464 39.7809 18.9873 38.4946 17.6915 37.3873L16.0188 38.1647V36.1104C16.5654 36.525 17.1308 36.9585 17.6727 37.4203L18.0166 37.2695C18.6789 37.0407 19.3116 36.7339 19.9014 36.3554C21.1311 35.4131 20.8437 33.877 20.0192 32.7603C19.3578 31.8852 18.5135 31.1649 17.545 30.6498C16.5766 30.1346 15.5074 29.837 14.4121 29.7778C9.47888 29.3867 5.75656 33.7734 5.18172 38.3485C4.9265 41.0585 5.48421 43.7831 6.78373 46.1748C7.09576 45.9509 7.42327 45.7493 7.76378 45.5717L7.33972 47.1831C7.14183 46.8533 6.95807 46.5188 6.78373 46.1748C3.09911 48.7616 2.0154 53.8503 1.77038 58.0956C1.6467 60.9892 1.81879 63.8879 2.28397 66.7465C2.59273 69.0238 3.0396 71.2801 3.62212 73.5032C4.66751 77.1744 6.13979 80.7104 8.0088 84.0388C10.0137 87.7341 12.4962 91.1497 15.3922 94.1974C18.5632 97.4956 22.3609 100.266 26.7288 101.736C26.9406 101.814 27.1716 101.822 27.3884 101.76C27.4449 101.025 27.5015 100.29 27.5627 99.5594C27.4886 99.5168 27.4095 99.4836 27.3272 99.4605Z" fill="#2D2824"/>
<path d="M7.76387 45.5767C7.42349 45.7528 7.09599 45.9527 6.78381 46.1751C6.95815 46.519 7.14191 46.8536 7.33981 47.1834L7.76387 45.5767Z" fill="#2D2824"/>
<path d="M16.0189 38.1649L17.6728 37.4393C17.1309 36.9681 16.5655 36.544 16.0189 36.1294V38.1649Z" fill="#2D2824"/>
<path d="M14.4687 18.8466C13.5773 18.3087 12.6145 17.8994 11.6086 17.6309C11.3683 17.565 11.1374 17.5179 10.8924 17.4707H10.8359H10.5767C9.72131 17.4281 8.86376 17.4755 8.01823 17.6121C6.41959 17.8011 4.91197 18.4566 3.68338 19.4968C2.51957 20.5852 2.26985 22.093 2.39706 23.6338C2.45361 24.2227 2.61852 25.0143 3.11326 25.4054C3.608 25.7965 4.70584 25.6975 5.36549 25.6693C7.07185 25.5675 8.7647 25.3041 10.4212 24.8824C13.2719 24.2274 16.1555 23.3982 19.091 23.2945C18.0873 21.3909 16.311 19.9067 14.4687 18.8466Z" fill="#BDFFEC"/>
<path d="M8.23986 3.84422C7.13259 3.01023 5.48346 2.0773 4.03223 2.39299C3.75553 2.44324 3.50428 2.58647 3.32006 2.79896C3.13584 3.01145 3.0297 3.28048 3.0192 3.56151C2.9877 3.92122 2.99877 4.2834 3.05218 4.64051C3.05218 4.83841 3.11814 5.0363 3.15584 5.2342C3.15584 5.29545 3.18411 5.36142 3.19353 5.42267C3.58461 5.53575 4.79083 5.89385 4.94161 5.93626C5.7379 6.12944 6.53891 6.29435 7.34462 6.44513C8.60728 6.68306 9.88106 6.85761 11.1612 6.96814C10.3433 5.79129 9.35931 4.73907 8.23986 3.84422Z" fill="#BDFFEC"/>
<path d="M31.0967 13.8566C31.0189 13.3436 30.9056 12.8367 30.7575 12.3394C30.6962 12.1274 30.6255 11.92 30.5501 11.708L30.4653 11.5054L30.4135 11.3923C29.8005 10.2696 28.9615 9.2861 27.9492 8.50399C26.9739 7.74068 25.6546 7.05276 24.373 7.20354C23.2563 7.33076 21.7579 8.2684 21.3056 9.33798C21.0606 9.93167 21.5035 10.4311 21.8333 10.8976C22.1915 11.3835 22.5803 11.8462 22.9971 12.2829C23.9598 13.2796 24.9759 14.2234 26.041 15.1099C27.6687 16.423 29.1747 17.8801 30.5407 19.4636C31.2388 17.6815 31.4312 15.7411 31.0967 13.8566Z" fill="#BDFFEC"/>
<path d="M3.07092 5.38964H3.10941C3.09498 5.37521 3.08054 5.3704 3.07092 5.38964Z" fill="white"/>
<path d="M21.9888 24.3354C21.9913 24.3794 21.9913 24.4234 21.9888 24.4674V24.3354Z" fill="#2D2824"/>
<path d="M21.9652 24.1943C21.9776 24.2406 21.9855 24.2879 21.9888 24.3357C21.9841 24.2886 21.9746 24.2415 21.9652 24.1943Z" fill="#2D2824"/>
<path d="M21.9983 24.5005C21.9893 24.7131 21.9243 24.9195 21.8098 25.0989C21.9316 24.923 21.9973 24.7144 21.9983 24.5005Z" fill="#2D2824"/>
<path d="M10.8596 17.4798C10.9963 17.4798 10.723 17.4516 10.8596 17.4798V17.4798Z" fill="#2D2824"/>
<path d="M20.825 25.6552C21.023 25.6605 21.2188 25.6126 21.3921 25.5165C21.5653 25.4204 21.7095 25.2795 21.8098 25.1087C21.3056 25.8154 19.9769 25.8767 19.6894 24.793C19.5468 24.2644 19.3445 23.7538 19.0863 23.2711C16.1509 23.3747 13.2673 24.2134 10.4166 24.8589C8.76009 25.2806 7.06724 25.5441 5.36089 25.6458C4.70123 25.6741 3.66464 25.8249 3.10865 25.3819C2.55266 24.939 2.449 24.1993 2.39246 23.6103C2.2511 22.0696 2.51496 20.5618 3.67878 19.4734C4.90736 18.4332 6.41498 17.7777 8.01363 17.5886C8.85915 17.452 9.7167 17.4046 10.5721 17.4473H10.8313H10.8595C10.7229 17.419 10.9962 17.4473 10.8595 17.4473H10.8925C11.1328 17.4944 11.3637 17.5415 11.6087 17.6075C12.6158 17.8834 13.5787 18.3006 14.4688 18.8467C16.3111 19.8927 18.0874 21.3769 19.0863 23.2569C19.666 23.2358 20.2463 23.2452 20.825 23.2852C21.0854 23.2944 21.3361 23.386 21.5411 23.5469C21.746 23.7078 21.8945 23.9297 21.9652 24.1804C21.9652 24.1804 21.9652 24.1804 21.9652 24.1522C21.1737 21.2026 18.879 18.8467 16.3441 17.24C15.2148 16.5141 13.9971 15.9361 12.7207 15.5202C11.4058 15.1232 10.0229 15.0029 8.65914 15.1668C6.62018 15.2827 4.64753 15.9326 2.93902 17.0515C2.13534 17.5983 1.46114 18.3144 0.963785 19.1496C0.466428 19.9847 0.157982 20.9187 0.0601179 21.8858C-0.151913 23.7705 0.14493 26.1264 1.79406 27.3279C2.6516 27.9499 3.73061 28.0158 4.75778 28.0158C5.77561 28.0041 6.79127 27.9191 7.79688 27.7614C12.1412 27.13 16.3723 25.3301 20.825 25.6552Z" fill="#2D2824"/>
<path d="M20.825 23.299C20.2463 23.259 19.6659 23.2496 19.0863 23.2707C19.3444 23.7535 19.5468 24.2641 19.6894 24.7927C19.9768 25.8764 21.3056 25.8151 21.8097 25.1083C21.9242 24.929 21.9892 24.7225 21.9982 24.5099C21.9982 24.5099 21.9982 24.4817 21.9982 24.4675C22.0008 24.4236 22.0008 24.3795 21.9982 24.3356C21.9949 24.2878 21.987 24.2405 21.9746 24.1943C21.9034 23.942 21.7535 23.7191 21.5467 23.558C21.3398 23.397 21.087 23.3062 20.825 23.299Z" fill="#2D2824"/>
<path d="M30.1544 22.6158L30.0319 22.5498L30.1544 22.6158Z" fill="#2D2824"/>
<path d="M22.2666 14.898C24.7356 17.2539 27.7559 19.2046 29.5746 22.1495C29.4576 21.9221 29.4129 21.6643 29.4466 21.4108C29.4803 21.1573 29.5907 20.9202 29.7631 20.7312C30.0726 20.3436 30.3308 19.9176 30.5311 19.4638C29.1651 17.8802 27.6591 16.4231 26.0314 15.1101C24.9663 14.2235 23.9502 13.2798 22.9875 12.283C22.5707 11.8463 22.1819 11.3837 21.8237 10.8977C21.4939 10.4265 21.051 9.9318 21.296 9.33812C21.7672 8.26854 23.2467 7.33089 24.3634 7.20368C25.645 7.0529 26.9643 7.74082 27.9396 8.50413C28.9519 9.28624 29.7909 10.2697 30.4039 11.3925L30.4557 11.5055C30.4557 11.5055 30.4557 11.5055 30.4934 11.5809C30.4934 11.5527 30.4652 11.5291 30.4557 11.5055L30.5406 11.7082C30.6159 11.9202 30.6866 12.1275 30.7479 12.3395C30.8992 12.8366 31.0157 13.3435 31.0965 13.8567C31.4262 15.7391 31.2306 17.6759 30.5311 19.4543C30.924 19.9323 31.2845 20.436 31.6101 20.9621C32.2604 22.0128 31.0447 22.9835 30.1353 22.6348C30.3492 22.7335 30.5886 22.763 30.8201 22.7191C31.0516 22.6751 31.2635 22.56 31.4264 22.3898C33.2216 20.1894 33.7823 17.2681 33.5184 14.4881C33.4336 13.2702 33.1749 12.0707 32.7504 10.926C32.1861 9.6071 31.3477 8.42336 30.2908 7.4534C29.0483 6.16626 27.445 5.28575 25.6921 4.92788C23.8074 4.63104 22.1818 5.27655 20.7353 6.43094C19.2888 7.58533 18.3229 9.44649 19.2699 11.2747C20.0685 12.635 21.0803 13.8584 22.2666 14.898Z" fill="#2D2824"/>
<path d="M30.013 22.5688L29.9329 22.5264L30.013 22.5688Z" fill="#2D2824"/>
<path d="M31.6103 20.9619C31.2847 20.4358 30.9242 19.9321 30.5313 19.4541C30.3317 19.9112 30.0735 20.3404 29.7633 20.731C29.5871 20.9239 29.4756 21.167 29.4443 21.4263C29.4131 21.6857 29.4636 21.9483 29.5889 22.1775C29.6307 22.2427 29.678 22.3042 29.7303 22.3613C29.7764 22.4115 29.8287 22.4558 29.8858 22.4932L29.9187 22.5215L29.9988 22.5639L30.1543 22.6157C31.0449 22.9832 32.2605 22.0126 31.6103 20.9619Z" fill="#2D2824"/>
<path d="M29.7632 22.3898C29.8035 22.432 29.8495 22.4685 29.8999 22.4981C29.8428 22.4608 29.7906 22.4165 29.7444 22.3662L29.7632 22.3898Z" fill="#2D2824"/>
<path d="M29.9336 22.5269L29.8999 22.498L29.9336 22.5269Z" fill="#2D2824"/>
<path d="M29.7303 22.3522C29.6781 22.2951 29.6308 22.2336 29.589 22.1685C29.6301 22.2341 29.6774 22.2957 29.7303 22.3522Z" fill="#2D2824"/>
<path d="M30.4559 11.5057C30.4559 11.5057 30.4559 11.5528 30.4936 11.5811C30.4606 11.5151 30.4559 11.4963 30.4559 11.5057Z" fill="#2D2824"/>
<path d="M3.20285 5.47419C3.20507 5.45699 3.20507 5.43957 3.20285 5.42236H3.11804C3.16987 5.49304 3.24055 5.88883 3.20285 5.47419Z" fill="#2D2824"/>
<path d="M1.1532 6.68061C1.49141 7.21247 2.02399 7.5912 2.63741 7.73605C3.47243 8.00751 4.32186 8.23245 5.18178 8.40983C7.35223 8.89794 9.55799 9.21305 11.7783 9.35219C11.9394 9.36948 12.1024 9.34767 12.2533 9.28861C12.4042 9.22956 12.5387 9.135 12.6453 9.01294C12.5673 8.93962 12.4963 8.85917 12.4332 8.77264C12.0139 8.16482 11.5945 7.54758 11.1563 6.94918C9.87622 6.83865 8.60244 6.6641 7.33978 6.42617C6.53407 6.27539 5.73306 6.11048 4.93677 5.91729C4.78599 5.8796 3.57977 5.51679 3.18869 5.40371C3.19091 5.42091 3.19091 5.43833 3.18869 5.45554C3.22639 5.87018 3.15571 5.45554 3.09446 5.38015H3.05676C3.05676 5.38015 3.08032 5.38015 3.09446 5.38015H3.17927C3.17927 5.3189 3.151 5.25293 3.14157 5.19168C3.10388 4.99378 3.06147 4.79589 3.03792 4.59799C2.98451 4.24088 2.97344 3.8787 3.00493 3.51899C3.0254 3.2434 3.13774 2.98265 3.32397 2.77848C3.5102 2.5743 3.75955 2.43852 4.0321 2.39287C5.48334 2.07718 7.13246 3.01012 8.23974 3.84411C9.35918 4.73896 10.3432 5.79118 11.161 6.96802C11.3684 6.96802 11.5757 7.00572 11.783 7.01514C12.0077 7.03405 12.2229 7.11366 12.4059 7.24545C12.5888 7.37724 12.7324 7.55627 12.8215 7.76338C12.9105 7.9705 12.9416 8.19792 12.9114 8.42134C12.8812 8.64475 12.7908 8.85575 12.65 9.03179C12.8333 9.21261 13.071 9.32811 13.3265 9.36047C13.5819 9.39282 13.8409 9.34024 14.0635 9.21084C14.3308 9.05092 14.5245 8.79238 14.603 8.49095C14.6814 8.18951 14.6383 7.86933 14.4829 7.5994C13.1306 5.62516 11.75 3.61323 9.84646 2.1243C8.10781 0.772016 5.88384 -0.306985 3.64103 0.0793818C3.10845 0.164031 2.60276 0.371059 2.16372 0.68419C1.72469 0.997321 1.36426 1.40802 1.11079 1.884C0.559512 2.93944 0.60663 4.14095 0.780966 5.2812C0.825614 5.76526 0.951451 6.23834 1.1532 6.68061Z" fill="#2D2824"/>
<path d="M11.7783 7.01538C11.571 7.01538 11.3637 6.98711 11.1564 6.96826C11.5946 7.56666 12.0139 8.1839 12.4333 8.79173C12.4963 8.87825 12.5673 8.9587 12.6453 9.03203C12.7861 8.85599 12.8765 8.64499 12.9067 8.42157C12.9369 8.19816 12.9058 7.97074 12.8168 7.76362C12.7277 7.5565 12.5841 7.37748 12.4012 7.24569C12.2183 7.11389 12.003 7.03429 11.7783 7.01538Z" fill="#2D2824"/>
<path d="M29.212 111.494C29.3015 107.343 29.6125 103.178 29.9517 99.0456C29.9493 98.734 29.8244 98.4358 29.604 98.2154C29.3836 97.995 29.0854 97.8701 28.7738 97.8677C28.4633 97.8737 28.1671 97.9997 27.9475 98.2194C27.7279 98.439 27.6019 98.7351 27.5958 99.0456L27.5534 99.5545C27.751 99.6718 27.9118 99.8422 28.0174 100.046C28.1231 100.25 28.1695 100.48 28.1514 100.709C28.1332 100.938 28.0513 101.157 27.9148 101.342C27.7783 101.527 27.5927 101.67 27.3791 101.755C27.087 105.543 26.8561 109.369 26.8561 113.167C26.8561 114.486 28.623 114.661 29.0942 113.69C28.8897 113.582 28.7204 113.417 28.6064 113.216C28.4923 113.015 28.4383 112.785 28.4507 112.554C28.4631 112.323 28.5414 112.101 28.6763 111.913C28.8112 111.725 28.9971 111.58 29.212 111.494Z" fill="#2D2824"/>
<path d="M27.5535 99.5547C27.4922 100.285 27.4357 101.02 27.3792 101.755C27.5927 101.67 27.7783 101.527 27.9148 101.343C28.0513 101.158 28.1333 100.938 28.1514 100.709C28.1696 100.48 28.1232 100.251 28.0175 100.046C27.9118 99.8424 27.7511 99.672 27.5535 99.5547Z" fill="#2D2824"/>
<path d="M18.0356 49.9729C18.0333 49.9525 18.0333 49.932 18.0356 49.9116C18.0309 49.9823 18.0309 49.9917 18.0356 49.9729Z" fill="#2D2824"/>
<path d="M18.5403 48.0596C18.5066 48.1173 18.5066 48.1173 18.5403 48.0596V48.0596Z" fill="#2D2824"/>
<path d="M16.7917 54.9999C17.0847 54.9925 17.3651 54.8791 17.5808 54.6807C17.7966 54.4822 17.933 54.2123 17.9649 53.9209C17.2681 54.0408 16.6048 54.3074 16.0189 54.7031C16.1208 54.8025 16.2418 54.8801 16.3747 54.9312C16.5075 54.9822 16.6494 55.0056 16.7917 54.9999Z" fill="#2D2824"/>
<path d="M18.1391 46.3822C17.9267 46.2725 17.6883 46.2234 17.4498 46.24C17.2113 46.2566 16.982 46.3384 16.7869 46.4764C16.8565 46.6207 16.9544 46.7496 17.0746 46.8555C17.1948 46.9614 17.335 47.0422 17.4869 47.0931C17.6388 47.144 17.7993 47.1641 17.9591 47.152C18.1189 47.14 18.2746 47.0961 18.4171 47.023L18.6103 46.9146C18.5231 46.6858 18.3556 46.4966 18.1391 46.3822Z" fill="#2D2824"/>
<path d="M93.0991 111.438C93.1714 111.669 93.3155 111.871 93.5104 112.014C93.7054 112.157 93.9409 112.234 94.1828 112.234C94.374 112.227 94.5612 112.177 94.7307 112.088C94.9002 111.999 95.0478 111.874 95.1629 111.721C94.9554 111.53 94.6813 111.429 94.3996 111.438H93.0991Z" fill="#2D2824"/>
<path d="M29.212 111.495C28.9961 111.578 28.8086 111.722 28.6719 111.909C28.5351 112.096 28.4548 112.318 28.4404 112.549C28.4261 112.78 28.4782 113.01 28.5908 113.212C28.7033 113.415 28.8714 113.581 29.0753 113.69C29.1512 113.526 29.1913 113.348 29.1931 113.167C29.212 112.611 29.212 112.051 29.212 111.495Z" fill="#2D2824"/>
</svg>
