<svg width="18" height="37" viewBox="0 0 18 37" fill="none" xmlns="http://www.w3.org/2000/svg">
<path d="M13.042 25.684H9.621V24.793H8.477V25.684H5.001V26.553H13.042V25.684ZM6.75 32.724H11.337V33.879H6.75V32.724ZM5.628 34.726H12.448V31.866H5.628V34.726ZM6.992 28.291C6.992 27.851 7.696 27.653 9.049 27.653C10.391 27.653 11.106 27.851 11.106 28.291C11.106 28.72 10.391 28.929 9.049 28.929C7.696 28.929 6.992 28.72 6.992 28.291ZM9.621 30.326V29.699C11.348 29.611 12.305 29.127 12.305 28.291C12.305 27.356 11.139 26.872 9.049 26.872C6.948 26.872 5.782 27.356 5.782 28.291C5.782 29.127 6.739 29.611 8.477 29.699V30.326H4.55V31.217H13.537V30.326H9.621Z" fill="#111111" fill-opacity="0.3"/>
<path d="M17 18H1C0.447715 18 0 17.5523 0 17V7.48908C0 7.18049 0.142473 6.88919 0.386059 6.69973L8.38606 0.477509C8.74717 0.196646 9.25283 0.196645 9.61394 0.477509L17.6139 6.69973C17.8575 6.88919 18 7.18049 18 7.48908V17C18 17.5523 17.5523 18 17 18Z" fill="#111111" fill-opacity="0.3"/>
</svg>
