<svg width="33" height="37" viewBox="0 0 33 37" fill="none" xmlns="http://www.w3.org/2000/svg">
<path d="M2.134 26.058H1.001V32.339H1.661C2.695 32.339 3.839 32.284 5.17 32.042L5.049 31.074C3.971 31.272 3.014 31.349 2.134 31.371V26.058ZM7.931 24.914V28.863H6.754V25.112H5.687V34.352H6.754V29.798H7.931V34.847H9.009V24.914H7.931ZM14.5368 26.905H16.2528V31.36H14.5368V26.905ZM13.4808 32.262H17.3088V26.003H13.4808V32.262ZM20.5538 24.914V28.786H19.4208V25.101H18.3538V34.374H19.4208V29.71H20.5538V34.836H21.6318V24.914H20.5538ZM31.454 24.925H30.321V30.964H31.454V24.925ZM29.419 29.655C27.879 29.226 26.977 28.126 26.977 26.96V26.949H29.111V26.047H26.977V24.925H25.844V26.047H23.688V26.949H25.844V26.96C25.844 28.214 24.953 29.413 23.402 29.886L23.941 30.755C25.14 30.392 25.987 29.6 26.427 28.599C26.889 29.501 27.747 30.216 28.913 30.535L29.419 29.655ZM28.132 33.967C26.713 33.967 25.899 33.626 25.899 32.999C25.899 32.372 26.713 32.031 28.132 32.031C29.551 32.031 30.365 32.372 30.365 32.999C30.365 33.626 29.551 33.967 28.132 33.967ZM28.132 31.151C26.042 31.151 24.766 31.833 24.766 32.999C24.766 34.165 26.042 34.847 28.132 34.847C30.222 34.847 31.498 34.165 31.498 32.999C31.498 31.833 30.222 31.151 28.132 31.151Z" fill="#111111" fill-opacity="0.3"/>
<path d="M20.0523 4.16504H9.24231V5.20577H20.0523V4.16504Z" fill="#111111" fill-opacity="0.3"/>
<path d="M20.0523 8.328H9.24231V9.36873H20.0523V8.328Z" fill="#111111" fill-opacity="0.3"/>
<path d="M23.8815 6.54546H23.2969V2.59855C23.2963 1.90955 23.0118 1.24893 22.5059 0.761735C21.9999 0.274538 21.3139 0.000577778 20.5984 0L8.69854 0C7.98303 0.000577778 7.29699 0.274538 6.79105 0.761735C6.2851 1.24893 6.0006 1.90955 6 2.59855V10.9353C6.00299 11.623 6.28848 12.2816 6.7941 12.7672C7.29972 13.2529 7.98438 13.5261 8.69854 13.5273H9.24232V15.3927C9.2396 15.5999 9.301 15.8031 9.41868 15.9765C9.53635 16.1499 9.70499 16.2856 9.90308 16.3663C10.1012 16.4471 10.3198 16.4692 10.531 16.4299C10.7421 16.3905 10.9364 16.2915 11.0889 16.1455L13.0715 14.2364C13.1207 14.7389 13.3659 15.2049 13.7578 15.5401C14.1497 15.8754 14.6591 16.0551 15.1832 16.0429H20.1112L22.0485 17.7666C22.2233 17.923 22.4533 18.0096 22.692 18.0087C22.8254 18.0086 22.9573 17.9818 23.0794 17.9302C23.2414 17.8636 23.3797 17.7531 23.4775 17.612C23.5753 17.471 23.6283 17.3056 23.63 17.136V16.0451H23.8815C24.4271 16.0592 24.9563 15.8647 25.3533 15.504C25.7503 15.1434 25.9828 14.646 26 14.1207V8.472C25.9834 7.94632 25.7511 7.4484 25.3541 7.0873C24.957 6.7262 24.4275 6.53136 23.8815 6.54546ZM10.3254 15.3993V12.4931H8.69854C8.26948 12.4931 7.858 12.329 7.55461 12.0368C7.25122 11.7447 7.08077 11.3484 7.08077 10.9353V2.59855C7.08077 2.18539 7.25122 1.78915 7.55461 1.497C7.858 1.20485 8.26948 1.04073 8.69854 1.04073H20.5984C21.0274 1.04073 21.4389 1.20485 21.7423 1.497C22.0457 1.78915 22.2162 2.18539 22.2162 2.59855V10.9353C22.2162 11.3484 22.0457 11.7447 21.7423 12.0368C21.4389 12.329 21.0274 12.4931 20.5984 12.4931H13.3479L10.3254 15.3993ZM24.9192 14.1098C24.8995 14.3572 24.7797 14.5872 24.5856 14.7505C24.3916 14.9137 24.1387 14.997 23.8815 14.9826H22.5402V16.7738L20.5282 14.9826H15.1832C14.9261 14.9964 14.6736 14.9129 14.4797 14.7498C14.2857 14.5867 14.1658 14.357 14.1455 14.1098V13.5273H20.5984C21.3125 13.5261 21.9972 13.2529 22.5028 12.7672C23.0085 12.2816 23.2939 11.623 23.2969 10.9353V7.59055H23.8815C24.1387 7.5761 24.3916 7.65944 24.5856 7.82265C24.7797 7.98586 24.8995 8.21589 24.9192 8.46328V14.1098Z" fill="#111111" fill-opacity="0.3"/>
</svg>
