<svg width="66" height="89" viewBox="0 0 66 89" fill="none" xmlns="http://www.w3.org/2000/svg">
<path d="M58.2103 48.5802C58.5565 47.5396 58.8325 46.4767 59.0364 45.3989C59.8088 41.2861 59.667 36.9871 59.5643 32.8204C59.4715 29.0802 59.1782 25.3106 58.0099 21.7371C56.8415 18.1636 54.544 15.2665 52.0266 12.4969C49.3673 9.55573 46.4099 7.15377 42.7827 5.54592C39.1828 3.96095 35.3518 2.96784 31.4369 2.60475C27.6974 2.26161 23.7769 2.38416 20.228 3.7224C17.0405 5.00464 14.2298 7.07759 12.0596 9.7469C10.9893 11.0433 10.0617 12.4518 9.29285 13.9479C9.08754 14.34 8.8969 14.7371 8.71603 15.1342L8.61338 15.3547C8.61338 15.3891 8.58405 15.4332 8.56938 15.4724C8.38363 15.9626 8.20765 16.4185 8.04633 16.8989C5.776 23.5088 4.9004 30.5198 5.47507 37.4871L10.3292 37.6734C17.1142 37.9283 23.904 38.1636 30.689 38.1096C33.8713 38.1096 37.0438 38.0165 40.2261 37.8008C41.5753 37.7077 42.9196 37.59 44.259 37.4185L44.9531 37.3253L45.7988 37.1881C46.5836 37.1211 47.3452 36.8871 48.0328 36.5018C49.338 35.6146 50.5601 37.7371 49.2646 38.6195C47.8617 39.5998 45.8428 39.6734 44.1955 39.8793C42.6605 40.0704 41.1158 40.1979 39.5711 40.291C32.8106 40.7077 26.0158 40.5949 19.2504 40.4185C13.6923 40.291 8.19298 40.041 2.67896 39.8547C3.44662 43.0489 4.83355 46.0603 6.7607 48.7175C8.50039 51.2469 10.6116 53.4978 13.0226 55.394C13.0347 55.0728 13.1674 54.7681 13.394 54.5409C13.6206 54.3136 13.9245 54.1806 14.2447 54.1685C18.3868 53.7175 22.5418 53.4577 26.7099 53.3891C28.5479 53.3646 30.3908 53.3891 32.2289 53.4234C33.1039 53.4234 33.9838 53.4773 34.8637 53.5165C35.6839 53.4861 36.5048 53.5569 37.3078 53.7273C38.3539 54.0557 38.5934 55.0312 38.613 56.0067C38.613 56.9038 38.6472 57.8008 38.6619 58.693C38.6619 59.1832 38.6619 59.6244 38.6619 60.09C40.2359 60.0181 41.81 59.9234 43.384 59.8057C43.7081 59.8057 44.019 59.9348 44.2481 60.1647C44.4773 60.3945 44.6061 60.7062 44.6061 61.0312C44.6061 61.3562 44.4773 61.6679 44.2481 61.8978C44.019 62.1276 43.7081 62.2567 43.384 62.2567C41.8263 62.3711 40.2669 62.4642 38.7059 62.5361C38.7059 63.1293 38.7059 63.7224 38.7401 64.3106L38.7841 66.9479C39.8293 66.9087 40.8751 67.0109 41.8931 67.2518C42.9885 67.4977 43.9618 68.1246 44.6403 69.0214H44.9043H45.5251C45.8722 69.0214 46.2143 68.9773 46.5565 68.9283C47.3703 68.8123 48.1709 68.6169 48.9469 68.3449C50.4423 67.7545 51.7381 66.7476 52.6816 65.443C55.0622 62.4234 56.3918 58.4871 55.903 54.6587C55.9043 54.334 56.0334 54.0231 56.2624 53.7935C56.4913 53.564 56.8013 53.4345 57.1251 53.4332C57.4461 53.443 57.7513 53.5753 57.9783 53.803C58.2054 54.0307 58.3373 54.3368 58.3471 54.6587C58.924 59.193 57.1446 63.8694 54.285 67.3449C53.0289 68.9301 51.3461 70.121 49.4357 70.7763C47.7222 71.3683 45.901 71.5807 44.0977 71.3989C43.9251 71.4255 43.7489 71.4172 43.5795 71.3744C43.2721 71.2876 43.0097 71.0858 42.8463 70.8106C42.7959 70.685 42.7354 70.5637 42.6654 70.4479L42.5921 70.34C42.5188 70.2616 42.4406 70.1881 42.3575 70.1145C42.1961 70.0214 42.2059 70.0116 42.2597 70.041C42.1593 69.9741 42.0548 69.9135 41.9468 69.8596L41.8246 69.8008C41.5994 69.7165 41.3692 69.6461 41.1354 69.59L40.7687 69.5116L40.5977 69.4822C40.3679 69.4822 40.1382 69.4332 39.9084 69.4185C39.5516 69.4185 39.1996 69.4185 38.8427 69.4185C38.8916 71.9087 38.9373 74.3989 38.9796 76.8891C39.2876 76.9283 39.6004 76.9675 39.9084 77.0165L40.1284 77.0459C40.4168 77.0459 40.2164 77.0459 40.1284 77.0459C40.2555 77.0459 40.3826 77.0753 40.5048 77.09C40.7749 77.1096 41.0461 77.1096 41.3162 77.09H41.3798L41.5753 77.0655C41.7269 77.0361 41.8833 77.0067 42.0348 76.9675C42.1864 76.9283 42.4552 76.84 42.6605 76.7665L42.7436 76.7371C42.5579 76.791 42.7778 76.7371 42.817 76.6979L43.0956 76.5508L43.1396 76.5116C43.2325 76.4185 43.3302 76.3253 43.4182 76.2273C43.4934 76.1229 43.5786 76.026 43.6724 75.9381C43.6932 75.9088 43.7112 75.8776 43.7262 75.8449L43.6577 76.0214C43.75 75.7124 43.9574 75.4509 44.2368 75.2912C44.5163 75.1315 44.8463 75.0858 45.1585 75.1636C45.2601 75.1899 45.3573 75.2312 45.4469 75.2861C45.6085 75.2572 45.774 75.2572 45.9357 75.2861C46.9525 75.5214 48.4287 75.0508 49.4651 74.6047C49.6606 74.5214 49.8561 74.4185 50.0517 74.3204C50.1505 74.2517 50.2593 74.1988 50.3743 74.1636C51.3243 73.6416 52.2448 73.0672 53.1313 72.443C55.5755 70.7861 57.7557 68.742 59.1391 66.1047C59.8674 64.7028 61.9792 65.9479 61.2459 67.34C59.7794 70.1145 57.5308 72.3057 55.0084 74.1047H55.6292H62.4045C62.5267 72.1832 62.5707 70.2518 62.5511 68.3253C62.5393 64.1978 62.2355 60.0764 61.6419 55.992C61.4133 54.3562 61.0869 52.7356 60.6642 51.1391C60.5371 50.6734 60.3856 50.2126 60.2194 49.7567C59.3835 50.492 57.7899 49.84 58.2103 48.5802ZM16.9382 33.1293C16.9382 34.7077 14.494 34.7077 14.494 33.1293V15.1587C14.494 13.5753 16.9382 13.5802 16.9382 15.1587V33.1293ZM26.1527 34.5606C25.9928 34.8369 25.7313 35.0392 25.4243 35.1244C24.0787 35.3584 22.7093 35.4243 21.3475 35.3204C21.0255 35.3094 20.7183 35.1823 20.4822 34.9626C20.2545 34.7314 20.1264 34.4199 20.1254 34.0949C20.1252 33.9346 20.1566 33.7759 20.2179 33.6278C20.2791 33.4798 20.369 33.3453 20.4822 33.2322C20.7117 33.0016 21.0226 32.8712 21.3475 32.8695C22.393 32.9561 23.4446 32.9348 24.4858 32.8057L24.7742 32.7616C25.0933 32.6906 25.4271 32.734 25.7176 32.8842C25.9894 33.0487 26.1899 33.3092 26.2798 33.6145C26.3639 33.9344 26.3182 34.2746 26.1527 34.5606ZM31.4125 32.3547L31.0997 14.3106C31.0703 12.7322 33.5145 12.7371 33.5438 14.3106L33.8567 32.3547C33.8811 33.9185 31.4369 33.9136 31.4125 32.3547Z" fill="white"/>
<path d="M64.7702 75.3646C64.7518 75.5765 64.6884 75.7821 64.5844 75.9675C64.4906 76.161 64.3427 76.3229 64.1586 76.4334C63.9746 76.544 63.7625 76.5984 63.5481 76.5901H58.6647C56.1325 76.5901 53.6004 76.5901 51.0682 76.5901C49.2693 77.5018 47.3042 78.1048 45.3831 77.7028C45.1785 77.9537 44.9528 78.1866 44.7085 78.3989C44.1546 78.8242 43.5188 79.1296 42.8412 79.296C42.1492 79.5052 41.4271 79.5964 40.705 79.5656C40.3136 79.5411 39.9237 79.4969 39.5367 79.4332L39.0478 79.3597C39.0935 81.8433 39.1391 84.3286 39.1847 86.8156C39.1771 87.0001 39.1286 87.1806 39.0428 87.3441C38.957 87.5075 38.836 87.6497 38.6886 87.7605C38.5412 87.8712 38.3711 87.9477 38.1906 87.9844C38.01 88.021 37.8237 88.0169 37.6449 87.9724C35.9291 87.6146 34.2231 87.2911 32.4877 86.992C28.6357 86.3009 24.7642 85.6734 20.8877 85.1587C17.5213 84.6388 14.1251 84.3359 10.72 84.2518C10.5623 84.2555 10.4056 84.226 10.2599 84.1652C10.1142 84.1044 9.9829 84.0137 9.87435 83.8989C9.74295 83.7974 9.63947 83.6641 9.57362 83.5114C9.50777 83.3588 9.48173 83.1919 9.49794 83.0263C9.72933 81.2551 9.95745 79.4871 10.1823 77.7224C9.61519 77.63 9.055 77.499 8.50562 77.3303C7.58661 77.0067 7.26887 76.1979 7.17599 75.3009C7.02689 73.9242 7.02689 72.5354 7.17599 71.1587C7.25145 69.7802 7.72157 68.4527 8.53006 67.3352C8.90919 66.8869 9.39383 66.5405 9.9401 66.3274C10.4864 66.1143 11.077 66.0411 11.6586 66.1146C11.9845 63.4708 12.3234 60.8303 12.6754 58.193C9.53815 55.9401 6.82112 53.1508 4.64873 49.9528C2.22604 46.5834 0.634542 42.6859 0.00482521 38.5803C-0.00638178 38.4498 0.00860778 38.3183 0.0489085 38.1937C0.0892092 38.0691 0.154004 37.9539 0.239465 37.8548C0.343481 37.6925 0.489167 37.5614 0.661207 37.4751C0.833246 37.3889 1.02528 37.3507 1.21713 37.3646L2.9867 37.4283C2.92315 36.7126 2.86938 35.992 2.84005 35.2764C2.72735 31.0366 3.11293 26.7982 3.98881 22.6489C4.49363 19.8808 5.26638 17.1686 6.29609 14.5509C9.08244 7.84499 15.0511 2.1195 22.232 0.590085C26.3333 -0.282464 30.6546 -0.105994 34.7657 0.590085C38.8951 1.25868 42.8767 2.64378 46.5319 4.68322C50.1199 6.76165 53.0382 9.81067 55.6681 12.9822C56.9999 14.4911 58.1485 16.1531 59.09 17.9332C59.9692 19.7387 60.6258 21.6449 61.0453 23.6097C61.9056 27.5313 62.023 31.5656 62.023 35.5607C62.023 39.2862 62.0229 43.0705 61.231 46.7175C61.3729 46.8087 61.4972 46.925 61.5977 47.0607C62.3332 48.2693 62.8558 49.5958 63.1424 50.9822C64.0407 54.7386 64.5906 58.5703 64.7849 62.4283C65.0985 66.7349 65.0936 71.0588 64.7702 75.3646Z" fill="#F9E0D7"/>
<path d="M15.0659 52.899C13.2376 50.7715 11.3605 48.6784 9.60072 46.497C9.47851 46.3499 9.42962 46.2715 9.57627 46.497L9.29275 46.1146C9.10211 45.8401 8.91146 45.5656 8.73548 45.2813C8.37375 44.7127 8.04623 44.1293 7.75782 43.5313C7.46941 42.9333 7.16633 42.3254 6.89748 41.7127C6.7606 41.4039 6.62373 41.095 6.49174 40.7862C6.41842 40.6048 6.3842 40.5166 6.49174 40.747L6.23755 40.1293C6.04482 39.5229 5.64722 39.0028 5.11324 38.6588C4.54132 38.3301 3.86289 38.242 3.22635 38.4137C2.09714 38.7764 0.992384 40.1588 1.52032 41.4284C2.71307 44.3303 3.9156 47.1244 5.87093 49.6146C7.68449 51.9431 9.68871 54.1293 11.6098 56.3646C12.0682 56.8241 12.6897 57.0823 13.3378 57.0823C13.9859 57.0823 14.6075 56.8241 15.0659 56.3646C15.5091 55.8972 15.7563 55.2768 15.7563 54.6318C15.7563 53.9868 15.5091 53.3664 15.0659 52.899Z" fill="white"/>
<path d="M9.39526 37.2175C9.2988 33.3743 9.46211 29.5289 9.88409 25.7077C9.74233 26.943 9.88409 25.7077 9.94764 25.3793C10.0112 25.0509 10.0894 24.5754 10.1676 24.1734C10.3729 23.193 10.6222 22.2126 10.9106 21.2322C11.0866 20.6538 11.2773 20.0754 11.4826 19.5019C11.5852 19.2175 11.6928 18.9283 11.8052 18.644C11.859 18.5019 11.9176 18.3548 11.9763 18.2077C12.1865 17.7175 11.7123 18.8107 11.9763 18.2077C12.5372 16.9279 13.1907 15.6909 13.9316 14.5068C14.3178 13.8891 14.7382 13.296 15.1733 12.7126C15.3541 12.4675 14.7578 13.2371 15.0217 12.9087L15.1928 12.693C15.3052 12.5509 15.4226 12.4136 15.5399 12.2715C15.7941 11.9773 16.0532 11.6881 16.3171 11.4087C16.8608 10.8413 17.437 10.3061 18.0427 9.80578L18.4924 9.43813C18.8297 9.16362 18.0671 9.75185 18.3164 9.57538L18.556 9.39891C18.9079 9.13911 19.2648 8.90872 19.6363 8.65872C20.4363 8.15103 21.271 7.70056 22.1342 7.31068C22.2124 7.27636 22.2955 7.24695 22.3689 7.20774C21.6503 7.57048 22.2076 7.28127 22.3689 7.20774L23.0435 6.95283C23.5323 6.78127 24.0211 6.6244 24.51 6.46264C24.9988 6.30087 25.6 6.18323 26.1524 6.07538L26.9394 5.93323L27.3305 5.88421C27.8193 5.80087 26.7977 5.94303 27.2767 5.88421C28.5458 5.74044 29.8224 5.67495 31.0994 5.68813C31.7476 5.68813 32.3693 5.4299 32.8277 4.97025C33.2861 4.5106 33.5436 3.88719 33.5436 3.23715C33.5311 2.59104 33.2695 1.97488 32.8138 1.51793C32.3582 1.06097 31.7437 0.798716 31.0994 0.786167C26.6859 0.66208 22.3131 1.6622 18.3898 3.69303C15.2296 5.45183 12.5163 7.91767 10.4609 10.8989C7.6663 14.9814 5.85259 19.6575 5.16198 24.5607C4.58468 28.7532 4.36554 32.9876 4.50694 37.2175C4.51579 37.8648 4.77614 38.4831 5.23261 38.9408C5.68907 39.3986 6.30562 39.6596 6.9511 39.6685C7.59619 39.6584 8.21203 39.3969 8.66823 38.9395C9.12444 38.482 9.38518 37.8644 9.39526 37.2175Z" fill="white"/>
<path d="M13.8926 57.1293L11.0574 83.0117L37.9822 87.1979L37.4885 55.9969L15.4666 55.4038L13.8926 57.1293Z" fill="white"/>
<path d="M36.1784 55.5901C35.9683 55.7715 36.0416 55.8891 36.1784 55.9577C36.1442 55.8058 36.1247 55.6195 36.1784 55.5901Z" fill="white"/>
<path d="M16.0093 82.1194C22.941 82.8106 29.8726 83.9086 36.7016 85.291L36.5109 74.8253L36.3203 64.2174C36.291 62.4674 36.2567 60.7174 36.2274 58.9674L36.1785 56.139C36.1805 56.108 36.1805 56.0769 36.1785 56.0459L35.1129 55.9919C28.5162 55.678 21.9053 55.8549 15.3347 56.5214C14.2397 64.9527 13.1545 73.3841 12.0791 81.8155C13.3892 81.8645 14.7041 81.987 16.0093 82.1194ZM25.2434 77.6341H16.8599C16.5358 77.6341 16.2249 77.505 15.9957 77.2752C15.7666 77.0453 15.6378 76.7336 15.6378 76.4086C15.6378 76.0836 15.7666 75.7719 15.9957 75.5421C16.2249 75.3122 16.5358 75.1831 16.8599 75.1831H25.2434C25.5675 75.1831 25.8783 75.3122 26.1075 75.5421C26.3367 75.7719 26.4654 76.0836 26.4654 76.4086C26.4654 76.7336 26.3367 77.0453 26.1075 77.2752C25.8783 77.505 25.5675 77.6341 25.2434 77.6341ZM17.7153 61.3939C22.7796 61.1227 27.8472 60.9331 32.918 60.8253C34.4921 60.791 34.4872 63.2468 32.918 63.2763C27.8505 63.3874 22.7829 63.5769 17.7153 63.8449C16.1364 63.9282 16.1364 61.4723 17.7153 61.3939ZM16.8599 68.0361H32.2092C33.7832 68.0361 33.7832 70.487 32.2092 70.487H16.8599C15.2858 70.487 15.2858 68.0361 16.8599 68.0361Z" fill="white"/>
<path d="M42.3622 70.0998L42.2839 70.0508L42.367 70.1096L42.3622 70.0998Z" fill="white"/>
<path d="M40.578 69.4823C40.4118 69.4578 40.4852 69.4823 40.578 69.4823V69.4823Z" fill="white"/>
<path d="M44.6351 61.0412C44.6313 60.7173 44.5013 60.4078 44.273 60.1788C44.0446 59.9498 43.736 59.8195 43.413 59.8157C41.839 59.9333 40.265 60.0281 38.6909 60.1L38.7349 62.551C40.2927 62.4758 41.852 62.3827 43.413 62.2716C43.736 62.2652 44.044 62.1334 44.2719 61.9039C44.4999 61.6744 44.6301 61.3651 44.6351 61.0412Z" fill="#2D2824"/>
<path d="M8.56445 15.4186C8.56722 15.3974 8.56722 15.376 8.56445 15.3548V15.3303V15.4186Z" fill="#2D2824"/>
<path d="M8.02175 16.8988C8.18306 16.4086 8.35904 15.9429 8.5448 15.4723C8.5448 15.4331 8.57902 15.389 8.58879 15.3547C8.59156 15.3759 8.59156 15.3973 8.58879 15.4184L8.6279 15.3302C8.6279 15.3008 8.6279 15.2959 8.6279 15.3302V15.3547L8.73056 15.1341C8.91142 14.7371 9.10207 14.34 9.30738 13.9478C10.0839 12.4506 11.0197 11.0421 12.0986 9.74686C14.2591 7.08645 17.0556 5.01736 20.2279 3.73215C23.7768 2.39391 27.6972 2.26156 31.4368 2.6145C35.3517 2.97759 39.1827 3.9707 42.7826 5.55568C46.4097 7.16352 49.3672 9.58509 52.0264 12.5067C54.5439 15.2763 56.8365 18.1341 58.0097 21.7469C59.1829 25.3596 59.4762 29.0998 59.5642 32.8302C59.6669 36.9969 59.8086 41.2959 59.0363 45.4086C58.8323 46.4865 58.5563 47.5493 58.2101 48.59C57.7897 49.8498 59.3833 50.5018 60.1997 49.7959C60.1459 49.6537 60.1019 49.5067 60.0433 49.3645L59.9699 49.1978L59.8135 48.8841C59.7118 48.6874 59.5975 48.4974 59.4713 48.3155C59.3105 48.0341 59.2665 47.7005 59.3488 47.3869C59.4311 47.0732 59.6331 46.8046 59.9113 46.639C60.1206 46.5178 60.3617 46.4632 60.6026 46.4825C60.8435 46.5017 61.0729 46.5939 61.2604 46.7469C62.0524 43.0998 62.0768 39.3155 62.0524 35.59C62.0524 31.5949 61.9204 27.5557 61.0747 23.639C60.6553 21.6742 59.9986 19.768 59.1194 17.9625C58.1779 16.1824 57.0293 14.5205 55.6975 13.0116C53.0383 9.80568 50.12 6.76156 46.5319 4.68313C42.8755 2.65052 38.8939 1.27208 34.7658 0.6096C30.6547 -0.106086 26.3334 -0.282557 22.2321 0.589992C15.0512 2.1194 9.08251 7.84489 6.29617 14.5508C5.26646 17.1685 4.49371 19.8807 3.98888 22.6488C3.11869 26.7955 2.73804 31.0305 2.85479 35.2665C2.88412 35.9822 2.9379 36.7027 3.00144 37.4184C3.81779 37.4478 4.63414 37.4724 5.4456 37.5067C4.86976 30.5326 5.74706 23.5146 8.02175 16.8988Z" fill="#2D2824"/>
<path d="M6.76057 48.7175C4.83341 46.0604 3.44648 43.0489 2.67882 39.8548L1.21232 39.8058C0.991032 39.7927 0.777073 39.7215 0.592005 39.5991C0.406937 39.4767 0.257297 39.3076 0.158163 39.1088C0.059029 38.91 0.0139032 38.6885 0.0273326 38.4666C0.0407619 38.2447 0.112272 38.0303 0.234657 37.845C0.148823 37.9456 0.0842122 38.0627 0.044725 38.189C0.00523775 38.3154 -0.00830766 38.4485 0.00490615 38.5803C0.634623 42.6859 2.22612 46.5834 4.64881 49.9528C6.81963 53.1447 9.53323 55.9289 12.6657 58.1783C12.783 57.2567 12.9052 56.3303 13.0225 55.4087C10.6103 53.5081 8.49908 51.2521 6.76057 48.7175Z" fill="#2D2824"/>
<path d="M14.4939 15.1586V33.1292C14.4939 34.7076 16.9381 34.7076 16.9381 33.1292V15.1586C16.9381 13.5801 14.4939 13.5752 14.4939 15.1586Z" fill="#2D2824"/>
<path d="M31.0996 14.2911L31.4125 32.3548C31.4125 33.9333 33.8566 33.9382 33.8566 32.3548L33.5438 14.3107C33.5145 12.7176 31.0703 12.7127 31.0996 14.2911Z" fill="#2D2824"/>
<path d="M1.23181 37.3548C1.03997 37.3409 0.847932 37.3791 0.675892 37.4654C0.503853 37.5516 0.358167 37.6828 0.25415 37.845C0.37498 37.7006 0.524096 37.5825 0.692265 37.4982C0.860434 37.4139 1.04407 37.3651 1.23181 37.3548Z" fill="#2D2824"/>
<path d="M2.44913 38.5804C2.50779 39.0069 2.586 39.4333 2.67399 39.8549C8.18801 40.0412 13.702 40.2912 19.221 40.4382C25.9864 40.6147 32.7812 40.7275 39.5417 40.3108C41.0864 40.2177 42.6311 40.0902 44.1661 39.899C45.8085 39.6931 47.8323 39.5951 49.2352 38.6392C50.5306 37.7569 49.3086 35.6343 48.0034 36.5216C47.3158 36.9069 46.5542 37.1408 45.7694 37.2078L44.9237 37.3451L44.2296 37.4382C42.8902 37.6098 41.5459 37.7275 40.1967 37.8206C37.0242 38.0363 33.8419 38.1098 30.6596 38.1294C23.8746 38.1686 17.0848 37.948 10.2998 37.6931L5.44567 37.5069C5.47988 37.8598 5.5141 38.2078 5.5581 38.5608C5.55554 38.885 5.42597 39.1952 5.19733 39.4245C4.9687 39.6538 4.65934 39.7837 4.33602 39.7863C4.01463 39.7776 3.70878 39.6457 3.48144 39.4177C3.25411 39.1898 3.12258 38.8831 3.11394 38.5608C3.06505 38.1784 3.03084 37.801 2.99662 37.4186L1.23193 37.3549C1.55247 37.3648 1.85709 37.4972 2.08339 37.7251C2.3097 37.9529 2.44054 38.2589 2.44913 38.5804Z" fill="#2D2824"/>
<path d="M4.34086 39.7861C4.66418 39.7835 4.97354 39.6536 5.20217 39.4243C5.43081 39.1951 5.56038 38.8848 5.56294 38.5606C5.51894 38.2077 5.48473 37.8596 5.45051 37.5067C4.63416 37.4724 3.81781 37.4479 3.00635 37.4185C3.04057 37.8008 3.07478 38.1783 3.12367 38.5606C3.13225 38.8821 3.2631 39.1881 3.4894 39.4159C3.7157 39.6438 4.02033 39.7762 4.34086 39.7861Z" fill="#2D2824"/>
<path d="M1.23181 39.8057L2.6983 39.8547C2.61031 39.4332 2.5321 39.0067 2.47344 38.5802C2.4648 38.2579 2.33327 37.9512 2.10593 37.7233C1.87859 37.4953 1.57275 37.3634 1.25136 37.3547C1.06362 37.365 0.879979 37.4138 0.71181 37.4981C0.543641 37.5824 0.394525 37.7005 0.273696 37.8449C0.151903 38.0289 0.0802672 38.2416 0.0659145 38.462C0.0515618 38.6823 0.0949925 38.9026 0.191886 39.1009C0.28878 39.2992 0.435759 39.4686 0.618203 39.5923C0.800647 39.7159 1.0122 39.7895 1.23181 39.8057Z" fill="#2D2824"/>
<path d="M24.598 32.791H24.4856L24.2705 32.8204L24.598 32.791Z" fill="#2D2824"/>
<path d="M25.7175 32.8841C25.427 32.7339 25.0931 32.6906 24.774 32.7616L24.4856 32.8057H24.5981L24.2705 32.8498L24.4856 32.8204C23.4445 32.9494 22.3928 32.9708 21.3473 32.8841C21.0225 32.8859 20.7115 33.0163 20.4821 33.2469C20.3688 33.36 20.279 33.4944 20.2177 33.6425C20.1565 33.7906 20.1251 33.9493 20.1252 34.1096C20.1263 34.4345 20.2544 34.7461 20.4821 34.9772C20.7182 35.197 21.0254 35.324 21.3473 35.3351C22.7091 35.4389 24.0785 35.3731 25.4242 35.139C25.7312 35.0539 25.9927 34.8515 26.1525 34.5753C26.3181 34.2892 26.3638 33.949 26.2796 33.6292C26.1931 33.3184 25.9922 33.0522 25.7175 32.8841Z" fill="#2D2824"/>
<path d="M10.7004 84.2372C10.3856 84.2242 10.0858 84.099 9.85474 83.8843C9.96329 83.9991 10.0946 84.0898 10.2403 84.1506C10.3859 84.2114 10.5427 84.2409 10.7004 84.2372Z" fill="#2D2824"/>
<path d="M36.1785 55.9578V56.046H36.3104C36.8286 56.0754 36.3936 56.0852 36.1785 55.9578Z" fill="#2D2824"/>
<path d="M38.2755 85.6096C37.7524 85.4969 37.2245 85.394 36.7014 85.291L36.7307 86.791L38.2755 85.6096Z" fill="#2D2824"/>
<path d="M10.7006 81.7862C11.1601 81.7862 11.6196 81.7862 12.0791 81.8156C13.1611 73.3842 14.243 64.9529 15.325 56.5215L14.6357 56.5901C15.8187 57.4872 14.6357 59.5019 13.3354 58.6489C13.1057 58.497 12.8906 58.3352 12.6657 58.1587C12.3399 60.7993 12.0009 63.4398 11.649 66.0803C11.8103 66.0803 11.9716 66.0803 12.1378 66.1293C12.4592 66.138 12.765 66.2699 12.9924 66.4979C13.2197 66.7258 13.3512 67.0325 13.3599 67.3548C13.3599 67.9529 12.7928 68.6685 12.1378 68.5803C11.8983 68.546 11.605 68.5117 11.3459 68.5019L10.4807 75.247L11.0673 75.3744C11.3797 75.4609 11.6451 75.6683 11.8051 75.9509C11.965 76.2336 12.0065 76.5685 11.9203 76.8818C11.8341 77.1951 11.6273 77.4612 11.3454 77.6217C11.0635 77.7821 10.7296 77.8236 10.4171 77.7372L10.1678 77.6881C9.93643 79.4529 9.70831 81.2208 9.48344 82.9921C9.46723 83.1576 9.49327 83.3245 9.55912 83.4772C9.62496 83.6298 9.72845 83.7631 9.85984 83.8646C9.21947 83.2078 9.49811 81.7813 10.7006 81.7862Z" fill="#2D2824"/>
<path d="M11.9227 83.0116C11.9765 82.6146 12.0253 82.2175 12.0791 81.8155C11.6196 81.8155 11.1601 81.7861 10.7006 81.7861C9.49808 81.7861 9.23412 83.2077 9.85493 83.8842C10.086 84.0989 10.3858 84.224 10.7006 84.2371C11.0224 84.2296 11.3289 84.0981 11.5565 83.8699C11.7841 83.6417 11.9152 83.3343 11.9227 83.0116Z" fill="#2D2824"/>
<path d="M14.6357 56.5901L15.325 56.5215L15.4667 55.4038L14.4353 56.4381L14.5673 56.5313L14.6357 56.5901Z" fill="#2D2824"/>
<path d="M38.9258 79.3205L38.6521 79.2862C38.3311 79.2764 38.0259 79.1441 37.7988 78.9163C37.5717 78.6886 37.4398 78.3826 37.43 78.0607C37.4293 77.8996 37.4605 77.7399 37.5217 77.591C37.5829 77.442 37.6729 77.3066 37.7865 77.1927C37.9001 77.0788 38.0351 76.9885 38.1836 76.9272C38.3322 76.8658 38.4914 76.8346 38.6521 76.8352L38.9943 76.8793C38.9486 74.3891 38.903 71.8989 38.8574 69.4087H38.6227C38.2986 69.4087 37.9878 69.2796 37.7586 69.0498C37.5294 68.82 37.4007 68.5083 37.4007 68.1832C37.4007 67.8582 37.5294 67.5465 37.7586 67.3167C37.9878 67.0869 38.2986 66.9577 38.6227 66.9577H38.8036L38.7596 64.3205C38.7596 63.7323 38.7596 63.1391 38.7254 62.546H38.4419C38.1178 62.546 37.8069 62.4169 37.5777 62.187C37.3486 61.9572 37.2198 61.6455 37.2198 61.3205C37.2198 60.9955 37.3486 60.6838 37.5777 60.4539C37.8069 60.2241 38.1178 60.095 38.4419 60.095H38.6814C38.6814 59.6293 38.6814 59.1636 38.6814 58.6979C38.6814 57.8058 38.6521 56.9087 38.6325 56.0117C38.6325 55.0313 38.3734 54.0509 37.3273 53.7323C36.5243 53.5619 35.7034 53.4911 34.8832 53.5215C34.0033 53.4823 33.1234 53.4479 32.2484 53.4283C30.4104 53.3793 28.5675 53.3695 26.7295 53.394C22.5646 53.4561 18.4095 53.7159 14.2642 54.1734C13.944 54.1856 13.6401 54.3186 13.4135 54.5458C13.1869 54.7731 13.0543 55.0778 13.0422 55.3989C13.5017 55.7568 13.9709 56.1048 14.4549 56.4283L15.4668 55.394L15.325 56.5117C21.8956 55.8453 28.5065 55.6683 35.1032 55.9823L36.1688 56.0362V55.9479C36.0368 55.8793 35.9635 55.7617 36.1688 55.5803C36.1297 55.6097 36.1688 55.796 36.1688 55.9479C36.4035 56.0754 36.8385 56.0656 36.3106 56.046H36.1786C36.1806 56.077 36.1806 56.1081 36.1786 56.1391L36.2324 58.9479C36.2617 60.6979 36.2959 62.4479 36.3252 64.1979L36.5159 74.8254L36.7016 85.296C37.2247 85.3989 37.7526 85.5019 38.2757 85.6146L36.731 86.796L36.7016 85.296C29.858 83.9136 22.941 82.8156 16.0094 82.1244C14.7042 81.9921 13.3892 81.8744 12.0987 81.8205C12.0449 82.2225 11.9961 82.6195 11.9423 83.0166C11.9348 83.3392 11.8037 83.6466 11.5761 83.8748C11.3485 84.1031 11.042 84.2346 10.7202 84.2421C14.1253 84.3261 17.5215 84.629 20.8879 85.1489C24.7644 85.6636 28.6359 86.2911 32.4879 86.9823C34.2086 87.296 35.9097 87.6195 37.6451 87.9627C37.8264 88.0093 38.016 88.0141 38.1995 87.9769C38.383 87.9397 38.5557 87.8613 38.7047 87.7477C38.8538 87.6341 38.9753 87.4881 39.0601 87.3208C39.145 87.1534 39.191 86.969 39.1947 86.7813C39.1458 84.2944 39.1002 81.8091 39.0578 79.3254L38.9258 79.3205Z" fill="#2D2824"/>
<path d="M38.4516 60.1096C38.1275 60.1096 37.8166 60.2387 37.5874 60.4686C37.3582 60.6984 37.2295 61.0101 37.2295 61.3351C37.2295 61.6601 37.3582 61.9718 37.5874 62.2017C37.8166 62.4315 38.1275 62.5606 38.4516 62.5606H38.7351L38.6911 60.1096H38.4516Z" fill="#2D2824"/>
<path d="M14.6357 56.59L14.5673 56.5311L14.4353 56.438L14.2446 56.6292L14.6357 56.59Z" fill="#2D2824"/>
<path d="M14.6355 56.5901L14.2445 56.6293L14.4351 56.4381C13.9463 56.1146 13.4819 55.7665 13.0224 55.4087C12.9051 56.3303 12.7828 57.2567 12.6655 58.1783C12.8904 58.3352 13.1055 58.4969 13.3352 58.6685C14.6209 59.5018 15.8185 57.4871 14.6355 56.5901Z" fill="#2D2824"/>
<path d="M43.6234 75.9822C43.5745 76.0558 43.5941 76.0264 43.6869 75.9038L43.6234 75.9822Z" fill="#2D2824"/>
<path d="M40.1428 77.0361C40.2308 77.0508 40.4312 77.0508 40.1428 77.0361V77.0361Z" fill="#2D2824"/>
<path d="M43.0515 76.5851C43.1053 76.5361 43.2666 76.4528 43.1395 76.5165H43.0955C43.076 76.5358 43.0609 76.5593 43.0515 76.5851Z" fill="#2D2824"/>
<path d="M45.4663 75.2763C45.3767 75.2214 45.2795 75.1801 45.1779 75.1538C44.8657 75.076 44.5357 75.1217 44.2563 75.2814C43.9768 75.4411 43.7694 75.7026 43.6772 76.0116L43.7456 75.8351C43.7306 75.8678 43.7126 75.899 43.6918 75.9283C43.599 76.0508 43.5794 76.0802 43.6283 76.0067L43.6723 75.943C43.5784 76.0309 43.4933 76.1278 43.4181 76.2322C43.3301 76.3302 43.2323 76.4234 43.1395 76.5165L43.0955 76.5557H43.1395C43.2665 76.492 43.1052 76.5557 43.0515 76.6244C42.9977 76.693 43.0515 76.6244 43.0515 76.6244C43.0635 76.6073 43.0784 76.5924 43.0955 76.5802L42.8168 76.7273C42.7777 76.7273 42.5577 76.8204 42.7435 76.7665L42.6604 76.7959C42.4551 76.8695 42.2498 76.943 42.0347 76.9969C41.8196 77.0508 41.7267 77.0655 41.5752 77.0949L41.3797 77.1195C41.4579 77.1195 41.5703 77.1195 41.4383 77.1195H41.3161C41.046 77.139 40.7748 77.139 40.5046 77.1195C40.3824 77.1195 40.2553 77.0802 40.1282 77.0753L39.9083 77.0459C39.6003 76.9969 39.2875 76.9577 38.9795 76.9185L39.0235 79.3695L39.5123 79.443C39.8993 79.5067 40.2892 79.5509 40.6806 79.5753C41.4027 79.6062 42.1249 79.515 42.8168 79.3057C43.4944 79.1394 44.1303 78.8339 44.6842 78.4087C44.9284 78.1964 45.1541 77.9635 45.3587 77.7126H45.2512C43.9265 77.3449 44.2833 75.4626 45.4663 75.2763Z" fill="#2D2824"/>
<path d="M38.652 76.8352C38.4914 76.8346 38.3322 76.8658 38.1836 76.9272C38.035 76.9885 37.9001 77.0788 37.7864 77.1927C37.6728 77.3066 37.5828 77.442 37.5216 77.591C37.4605 77.7399 37.4293 77.8996 37.4299 78.0607C37.4398 78.3826 37.5717 78.6886 37.7987 78.9163C38.0258 79.1441 38.331 79.2764 38.652 79.2862L38.9258 79.3205C38.8867 79.3205 38.8867 79.3205 38.9942 79.3205H38.9258H39.0333L38.9893 76.8695L38.652 76.8352Z" fill="#2D2824"/>
<path d="M38.9257 79.3204H38.9942C38.8866 79.3105 38.8866 79.3105 38.9257 79.3204Z" fill="#2D2824"/>
<path d="M39.9231 69.4233C40.1529 69.4233 40.3826 69.4674 40.6124 69.487H40.6906H40.627L40.7981 69.5165L41.1647 69.5949C41.3986 69.6509 41.6288 69.7213 41.854 69.8057H41.81C41.5998 69.7027 42.0984 69.9135 41.8784 69.8057L42.0006 69.8645C42.1086 69.9183 42.2131 69.9789 42.3135 70.0459L42.3917 70.0949L42.4455 70.1292H42.4064C42.4895 70.2027 42.5677 70.2763 42.641 70.3547L42.6117 70.3106C42.5726 70.2419 42.8072 70.541 42.641 70.3547L42.7143 70.4625C42.7843 70.5784 42.8448 70.6997 42.8952 70.8253C43.0586 71.1004 43.321 71.3022 43.6284 71.389C43.7978 71.4319 43.974 71.4402 44.1466 71.4135L43.9266 71.389C43.6155 71.2998 43.3519 71.0914 43.1928 70.8089C43.0336 70.5264 42.9917 70.1925 43.0761 69.8792C43.1704 69.5718 43.3783 69.3122 43.6574 69.1536C43.9364 68.995 44.2653 68.9495 44.5768 69.0263C44.5035 69.0263 44.5768 69.0263 44.6892 69.0263C44.0107 68.1295 43.0374 67.5026 41.942 67.2566C40.924 67.0158 39.8782 66.9135 38.833 66.9527L38.877 69.4037C39.2143 69.4037 39.5663 69.4037 39.9231 69.4233Z" fill="#2D2824"/>
<path d="M42.592 70.3156L42.6213 70.3597C42.7875 70.546 42.5333 70.247 42.592 70.3156Z" fill="#2D2824"/>
<path d="M42.2841 70.0508C42.2303 70.0214 42.2205 70.0508 42.3819 70.1244L42.2841 70.0508Z" fill="#2D2824"/>
<path d="M41.7953 69.786H41.8393C42.0837 69.8939 41.5851 69.6831 41.7953 69.786Z" fill="#2D2824"/>
<path d="M38.6227 66.9626C38.2986 66.9626 37.9878 67.0918 37.7586 67.3216C37.5294 67.5514 37.4006 67.8631 37.4006 68.1881C37.4006 68.5132 37.5294 68.8249 37.7586 69.0547C37.9878 69.2845 38.2986 69.4136 38.6227 69.4136H38.8476L38.8036 66.9626H38.6227Z" fill="#2D2824"/>
<path d="M10.5686 68.6979L10.6028 68.6685L10.5686 68.6979Z" fill="#2D2824"/>
<path d="M9.59577 75.0704C9.60044 75.1389 9.60044 75.2077 9.59577 75.2763C9.59577 75.3645 9.83041 75.6096 9.44912 75.1978C9.06783 74.7861 9.33669 75.0165 9.55666 75.0655H9.59088C9.59088 74.9086 9.55178 74.7322 9.542 74.5753C9.47111 73.4827 9.48582 72.3862 9.58599 71.2959C9.63127 70.4679 9.8816 69.6643 10.3144 68.9576C10.3872 68.8572 10.4708 68.7652 10.5637 68.6831L10.5979 68.6537L10.5637 68.6831L10.681 68.6047C10.7103 68.6047 10.8227 68.5459 10.8863 68.5312C11.0346 68.5043 11.1857 68.4961 11.336 68.5067L11.644 66.0851C11.0624 66.0116 10.4718 66.0848 9.92549 66.2979C9.37922 66.511 8.89458 66.8574 8.51545 67.3057C7.70697 68.4232 7.23685 69.7507 7.16139 71.1292C7.01229 72.5059 7.01229 73.8947 7.16139 75.2714C7.25427 76.1684 7.57201 76.9773 8.49101 77.3008C9.0404 77.4695 9.60059 77.6005 10.1677 77.6929L10.4806 75.242L9.59577 75.0704Z" fill="#2D2824"/>
<path d="M9.45407 75.1979C9.83536 75.6097 9.59583 75.3646 9.60072 75.2763C9.60539 75.2078 9.60539 75.139 9.60072 75.0704H9.5665C9.34163 75.0018 9.12655 74.8498 9.45407 75.1979Z" fill="#2D2824"/>
<path d="M12.133 68.5999C12.788 68.6881 13.3551 67.9724 13.3551 67.3744C13.3464 67.0521 13.2149 66.7454 12.9876 66.5174C12.7602 66.2894 12.4544 66.1575 12.133 66.1489C11.9717 66.1244 11.8103 66.1097 11.6441 66.0999L11.3362 68.5214C11.6002 68.5312 11.8935 68.5655 12.133 68.5999Z" fill="#2D2824"/>
<path d="M11.9177 76.9039C11.9993 76.59 11.9556 76.2567 11.7958 75.9747C11.636 75.6928 11.3729 75.4844 11.0623 75.3941L10.4757 75.2666L10.1628 77.7176L10.4121 77.7666C10.7256 77.8456 11.0575 77.8 11.3381 77.6391C11.6188 77.4783 11.8265 77.2148 11.9177 76.9039Z" fill="#2D2824"/>
<path d="M63.118 50.9479C62.8353 49.5749 62.3211 48.2603 61.5977 47.0606C61.5095 46.9322 61.4004 46.8196 61.2751 46.7273C61.0952 47.578 60.8667 48.4176 60.5907 49.242C60.523 49.4576 60.3959 49.6496 60.2241 49.7959C60.3903 50.2518 60.5419 50.7126 60.669 51.1783C61.0916 52.7748 61.4181 54.3954 61.6466 56.0312C62.2463 60.1119 62.5567 64.23 62.5754 68.3547C62.5754 70.2812 62.5754 72.2126 62.4288 74.1341H63.5531C63.7649 74.1375 63.9721 74.1962 64.1543 74.3044C64.3366 74.4127 64.4875 74.5668 64.5922 74.7515C64.6968 74.9361 64.7516 75.145 64.7511 75.3574C64.7506 75.5698 64.6949 75.7784 64.5894 75.9626C64.6934 75.7771 64.7567 75.5716 64.7751 75.3596C65.0953 71.0421 65.0953 66.7066 64.7751 62.3891C64.5758 58.5322 64.021 54.7022 63.118 50.9479Z" fill="#2D2824"/>
<path d="M60.0384 49.3498C60.0775 49.4282 59.9651 49.1586 60.0384 49.3498V49.3498Z" fill="#2D2824"/>
<path d="M59.9016 46.6097C59.6235 46.7752 59.4215 47.0438 59.3391 47.3575C59.2568 47.6712 59.3008 48.0047 59.4617 48.2861C59.5878 48.4681 59.7021 48.658 59.8039 48.8548L59.9603 49.1685L60.0336 49.3351C59.9603 49.144 60.0727 49.4136 60.0336 49.3351C60.0923 49.4773 60.1363 49.6244 60.19 49.7665C60.3618 49.6202 60.4889 49.4282 60.5567 49.2126C60.8326 48.3882 61.0611 47.5486 61.241 46.6979C61.0524 46.5501 60.8238 46.4626 60.5849 46.4469C60.346 46.4312 60.1079 46.4879 59.9016 46.6097Z" fill="#2D2824"/>
<path d="M17.7152 63.8449C22.7795 63.5737 27.8471 63.3841 32.9179 63.2763C34.487 63.2469 34.4919 60.791 32.9179 60.8253C27.8503 60.9397 22.7828 61.1292 17.7152 61.3939C16.1363 61.4724 16.1363 63.9282 17.7152 63.8449Z" fill="#2D2824"/>
<path d="M16.86 70.4871H32.2093C33.7833 70.4871 33.7833 68.0361 32.2093 68.0361H16.86C15.2859 68.0361 15.2859 70.4871 16.86 70.4871Z" fill="#2D2824"/>
<path d="M25.2432 75.1831H16.8598C16.5357 75.1831 16.2248 75.3122 15.9956 75.542C15.7665 75.7719 15.6377 76.0836 15.6377 76.4086C15.6377 76.7336 15.7665 77.0453 15.9956 77.2752C16.2248 77.505 16.5357 77.6341 16.8598 77.6341H25.2432C25.5674 77.6341 25.8782 77.505 26.1074 77.2752C26.3366 77.0453 26.4653 76.7336 26.4653 76.4086C26.4653 76.0836 26.3366 75.7719 26.1074 75.542C25.8782 75.3122 25.5674 75.1831 25.2432 75.1831Z" fill="#2D2824"/>
<path d="M45.1095 70.5362C45.0251 70.8441 44.8255 71.1075 44.5522 71.2715C44.4217 71.3486 44.2771 71.3986 44.127 71.4186C45.9303 71.6004 47.7514 71.388 49.465 70.796C51.3753 70.1407 53.0582 68.9498 54.3142 67.3646C57.1739 63.8892 58.9532 59.2127 58.3764 54.6784C58.3666 54.3565 58.2347 54.0504 58.0076 53.8227C57.7805 53.595 57.4753 53.4627 57.1543 53.4529C56.8306 53.4542 56.5205 53.5837 56.2916 53.8132C56.0627 54.0428 55.9335 54.3537 55.9322 54.6784C56.4211 58.5215 55.0915 62.4578 52.7108 65.4627C51.7673 66.7673 50.4715 67.7742 48.9762 68.3646C48.2002 68.6366 47.3996 68.832 46.5858 68.948C46.2436 68.997 45.9014 69.0264 45.5543 69.0411H44.9335H44.6696C44.7921 69.2191 44.8954 69.4097 44.9775 69.6097C45.1242 69.8949 45.1707 70.2213 45.1095 70.5362Z" fill="#2D2824"/>
<path d="M44.557 69.0313C44.2456 68.9545 43.9166 69.0001 43.6376 69.1587C43.3586 69.3173 43.1506 69.5768 43.0563 69.8842C42.9719 70.1975 43.0138 70.5315 43.173 70.814C43.3321 71.0965 43.5958 71.3048 43.9069 71.3941L44.1268 71.4186C44.277 71.3986 44.4216 71.3486 44.5521 71.2715C44.8253 71.1075 45.025 70.8441 45.1094 70.5362C45.1705 70.2213 45.124 69.8949 44.9774 69.6097C44.8918 69.411 44.7853 69.222 44.6597 69.046C44.5668 69.0264 44.4886 69.0215 44.557 69.0313Z" fill="#2D2824"/>
<path d="M61.2459 67.35C61.9791 65.9578 59.8674 64.7127 59.139 66.1147C57.7556 68.7519 55.5705 70.796 53.1313 72.4529C52.2447 73.0772 51.3243 73.6516 50.3743 74.1735C50.4992 74.1333 50.6293 74.1118 50.7604 74.1098H55.0084C57.5308 72.3156 59.7989 70.1245 61.2459 67.35Z" fill="#2D2824"/>
<path d="M50.0514 74.3303C49.8559 74.4284 49.6603 74.5313 49.4648 74.6146C48.4285 75.0607 46.9522 75.5313 45.9354 75.296C45.7738 75.2671 45.6083 75.2671 45.4466 75.296C45.6809 75.4317 45.8637 75.6415 45.9664 75.8925C46.069 76.1436 46.0856 76.4217 46.0136 76.6833C45.8601 77.0516 45.6507 77.3938 45.3928 77.698C47.3139 78.0999 49.3035 77.497 51.0779 76.5852H50.7602C49.4697 76.5607 49.2399 74.9333 50.0514 74.3303Z" fill="#2D2824"/>
<path d="M45.4663 75.2764C44.3029 75.4626 43.9461 77.345 45.305 77.6587H45.4126C45.6704 77.3546 45.8798 77.0123 46.0334 76.644C46.1006 76.3852 46.0816 76.1115 45.9792 75.8646C45.8768 75.6176 45.6967 75.4111 45.4663 75.2764Z" fill="#2D2824"/>
<path d="M50.3546 74.1733C50.2396 74.2086 50.1308 74.2615 50.032 74.3302C50.1591 74.2763 50.2666 74.2322 50.3546 74.1733Z" fill="#2D2824"/>
<path d="M62.3262 75.3647C62.3555 74.9529 62.3799 74.546 62.4044 74.1343H55.6292H55.0083C54.7395 74.3255 54.4755 74.5166 54.2018 74.698C53.199 75.389 52.1559 76.0192 51.0781 76.5853C53.6103 76.5853 56.1424 76.5853 58.6746 76.5853H63.5629C63.2379 76.5866 62.9255 76.459 62.6938 76.2304C62.4622 76.0018 62.33 75.6906 62.3262 75.3647Z" fill="#2D2824"/>
<path d="M63.553 76.5901C63.7673 76.5984 63.9795 76.544 64.1635 76.4334C64.3475 76.3229 64.4955 76.161 64.5893 75.9675C64.4891 76.1558 64.3397 76.3132 64.1572 76.4228C63.9746 76.5325 63.7658 76.5903 63.553 76.5901Z" fill="#2D2824"/>
<path d="M63.5531 74.1392H62.4093C62.3848 74.5509 62.3604 74.9578 62.3311 75.3696C62.3336 75.6938 62.4632 76.004 62.6918 76.2333C62.9204 76.4625 63.2298 76.5925 63.5531 76.595C63.7659 76.5953 63.9748 76.5375 64.1573 76.4278C64.3399 76.3181 64.4893 76.1608 64.5895 75.9725C64.6962 75.7882 64.7529 75.5791 64.754 75.3659C64.7551 75.1528 64.7005 74.9431 64.5957 74.7577C64.4909 74.5723 64.3395 74.4177 64.1566 74.3091C63.9737 74.2006 63.7656 74.142 63.5531 74.1392Z" fill="#2D2824"/>
<path d="M55.0083 74.1145H50.7603C50.6292 74.1165 50.499 74.138 50.3742 74.1782C50.2666 74.2371 50.1591 74.2812 50.0515 74.3351C49.2401 74.938 49.4698 76.5655 50.7603 76.5655H51.0781C52.1559 75.9994 53.1989 75.3692 54.2017 74.6782C54.4755 74.5116 54.7541 74.3057 55.0083 74.1145Z" fill="#2D2824"/>
</svg>
